<?xml version="1.0" encoding="utf-8"?>
<!-- Generator: Adobe Illustrator 21.1.0, SVG Export Plug-In . SVG Version: 6.00 Build 0)  -->
<svg version="1.1" id="图层_1" xmlns="http://www.w3.org/2000/svg" xmlns:xlink="http://www.w3.org/1999/xlink" x="0px" y="0px"
	 viewBox="0 0 40 40" style="enable-background:new 0 0 40 40;" xml:space="preserve">
<g>
	<g>
		<path d="M23.7,27.2c-0.2,0-0.5-0.1-0.7-0.2l-2.8-1.4c-0.1-0.1-0.3-0.1-0.4,0L17,27c-0.6,0.3-1.4,0.1-1.8-0.4
			c-0.3-0.3-0.4-0.8-0.3-1.2l0.4-3.1c0-0.2,0-0.3-0.1-0.4L13,19.7c-0.4-0.4-0.5-1-0.4-1.5c0.2-0.5,0.6-0.9,1.2-1l3.1-0.5
			c0.2,0,0.3-0.1,0.4-0.3l1.4-2.8c0.3-0.5,0.8-0.8,1.3-0.8s1.1,0.3,1.3,0.8l1.4,2.8c0.1,0.1,0.2,0.2,0.4,0.3l3.1,0.5
			c0.6,0.1,1,0.5,1.2,1c0.2,0.5,0,1.1-0.4,1.5l-2.2,2.2c-0.1,0.1-0.2,0.3-0.1,0.4l0.5,3.1c0.1,0.4-0.1,0.9-0.3,1.2
			C24.5,27,24.1,27.2,23.7,27.2z"/>
	</g>
</g>
</svg>
