<svg xmlns="http://www.w3.org/2000/svg" xmlns:xlink="http://www.w3.org/1999/xlink">
	<symbol viewBox="0 0 99.04 99.04" id="vk">
		<path class="cls-1" d="M49.52,0a49.51,49.51,0,1,1-35,14.5A49.34,49.34,0,0,1,49.52,0ZM81.79,17.25A45.64,45.64,0,1,0,95.17,49.52,45.47,45.47,0,0,0,81.79,17.25Z"/>
		<path class="cls-2" d="M76.91,35.73c-.74-.55-3.4-.55-6-.55a37.37,37.37,0,0,0-6,.3C64.3,35.7,63,38.83,61.34,42c-1.93,3.62-4.25,7.13-5.74,7.08-1.94,0-1.48-6-1.34-10.37,0-2.88-.44-3.81-.85-4.05a16,16,0,0,0-3.81-1.4s-8.39-.63-9.57,3c1.62.22,4.36-.28,3.29,10.93-.08.55-1.29,5.16-5.18-1.07-1-1.56-4.72-10.91-6-11-4.31-.08-8.58-.28-10.06.55S23.91,43,29.42,51.58c4.47,7.07,9.21,12.55,17.44,13.92,1.56.17,5.56.33,6.85-.27.85-.41-.22-6.5,2.72-7.1,1.29-.25,6.3,6.36,8.19,7.1a18.39,18.39,0,0,0,6.26.55c2.79-.08,6,.27,6.27-1.65.69-4.19-8.47-9.68-8.71-12.25-.22-1.87,3.34-5.3,5.15-7.93,2.25-3.18,4.72-7,3.32-8.22Z"/>
	</symbol>

	<symbol viewBox="0 0 99.04 99.04" id="odn">
		<path class="cls-1" d="M49.52,0a49.51,49.51,0,1,1-35,14.5A49.34,49.34,0,0,1,49.52,0Zm32.3,17.25A45.71,45.71,0,1,0,95.17,49.52,45.59,45.59,0,0,0,81.82,17.25Z"/>
		<path class="cls-1" d="M38,79l-.6-.17A4.09,4.09,0,0,1,34.55,75a3.47,3.47,0,0,1,1-2.24Q41,67.33,46.44,61.86c.08-.07.14-.15.25-.27-.29-.05-.52-.09-.76-.11a28.69,28.69,0,0,1-7.12-1.72,18.16,18.16,0,0,1-4.06-2.32,19.85,19.85,0,0,1-2-1.72,2.73,2.73,0,0,1-.89-2.12,3.88,3.88,0,0,1,2.87-3.77,3.82,3.82,0,0,1,2.8.52c.69.41,1.33.9,2,1.34a15.3,15.3,0,0,0,4.36,1.86,22.54,22.54,0,0,0,5.59.81,18.76,18.76,0,0,0,2.7-.2,21,21,0,0,0,5.39-1.41,16.48,16.48,0,0,0,3.38-2,4.55,4.55,0,0,1,2.58-1,3.25,3.25,0,0,1,3.05,1.65,4.34,4.34,0,0,1,.68,1.94,3.07,3.07,0,0,1-.91,2.4,15.4,15.4,0,0,1-2.72,2.18,20.45,20.45,0,0,1-8.23,3.19c-1,.17-1.91.3-2.91.46a2.33,2.33,0,0,0,.19.23L63.2,72.39a4.19,4.19,0,0,1,1.2,1.73,3.42,3.42,0,0,1-.88,3.55A3.81,3.81,0,0,1,61.28,79a.51.51,0,0,0-.15.07h-.69c-.09,0-.18-.07-.27-.09a3.22,3.22,0,0,1-1.68-.83c-.25-.24-.5-.48-.74-.73l-8-8c-.14-.15-.24-.17-.4,0-2.69,2.7-5.39,5.39-8.07,8.1A4.34,4.34,0,0,1,38.77,79s-.05,0-.07,0Z"/>
		<path class="cls-1" d="M49.52,20a14.91,14.91,0,1,1-14.9,14.71A14.91,14.91,0,0,1,49.52,20ZM56.88,35a7.37,7.37,0,1,0-7.52,7.35A7.37,7.37,0,0,0,56.88,35Z"/>
	</symbol>

	<symbol viewBox="0 0 99.04 99.04" id="inst">
			<path class="cls-1" d="M49.52,0a49.51,49.51,0,1,1-35,14.5A49.31,49.31,0,0,1,49.52,0Zm32.3,17.25A45.71,45.71,0,1,0,95.17,49.52,45.59,45.59,0,0,0,81.82,17.25Z"/>
			<path class="cls-2" d="M36.85,49.52A12.68,12.68,0,1,1,49.52,62.21,12.71,12.71,0,0,1,36.85,49.52ZM62.62,24.7H36.44A11.78,11.78,0,0,0,24.7,36.44V62.62A11.79,11.79,0,0,0,36.44,74.36H62.62A11.76,11.76,0,0,0,74.36,62.62V36.44A11.75,11.75,0,0,0,62.62,24.7ZM36.44,27.64H62.62a8.82,8.82,0,0,1,8.81,8.8V62.62a8.81,8.81,0,0,1-8.81,8.8H36.44a8.81,8.81,0,0,1-8.8-8.8V36.44a8.81,8.81,0,0,1,8.8-8.8Zm28.79,3.7a2.58,2.58,0,1,0,2.58,2.58,2.57,2.57,0,0,0-2.58-2.58Zm.3,18.18a16,16,0,1,0-16,16,16,16,0,0,0,16-16Z"/>
	</symbol>

	<symbol viewBox="12 12 16 16" id="gramm">
		<path d="M20.9,28.5c-0.8,0-1.5-0.6-1.7-1.4l-0.8-4.9c0-0.3-0.3-0.5-0.6-0.6l-4.9-0.8c-0.8-0.1-1.3-0.7-1.4-1.5      c-0.1-0.8,0.3-1.5,1.1-1.7l12.6-4.9c0.7-0.3,1.6,0,2,0.6c0.3,0.5,0.4,1,0.2,1.6l-4.9,12.6C22.2,28.1,21.6,28.5,20.9,28.5z       M25.8,13.5c-0.1,0-0.2,0-0.3,0l-12.6,4.9c-0.4,0.1-0.5,0.5-0.4,0.7c0,0.2,0.2,0.5,0.6,0.6l4.9,0.8c0.7,0.1,1.3,0.7,1.4,1.4      l0.8,4.9c0.1,0.4,0.4,0.6,0.7,0.6c0.1,0,0.5,0,0.6-0.4l4.9-12.6c0.1-0.3,0-0.5-0.1-0.6C26.3,13.6,26,13.5,25.8,13.5z"/>
		<path d="M18.2,21.1l7.6-7.6c0.2-0.2,0.5-0.2,0.7,0s0.2,0.5,0,0.7l-7.6,7.6L18.2,21.1z"/>
	</symbol>

	<symbol viewBox="12 12 14 14" id="search">
		<path d="M18.5,24c-3,0-5.5-2.5-5.5-5.5s2.5-5.5,5.5-5.5s5.5,2.5,5.5,5.5S21.5,24,18.5,24z M18.5,14     C16,14,14,16,14,18.5s2,4.5,4.5,4.5s4.5-2,4.5-4.5S21,14,18.5,14z"/>
		<path d="M22.5,21.8l4.4,4.4c0.2,0.2,0.2,0.5,0,0.7C26.8,27,26.6,27,26.5,27s-0.3,0-0.4-0.1l-4.4-4.4L22.5,21.8z"/>
	</symbol>

	<symbol viewBox="12 12 16 16" id="star">
		<path d="M23.7,27.2c-0.2,0-0.5-0.1-0.7-0.2l-2.8-1.4c-0.1-0.1-0.3-0.1-0.4,0L17,27c-0.6,0.3-1.4,0.1-1.8-0.4    c-0.3-0.3-0.4-0.8-0.3-1.2l0.4-3.1c0-0.2,0-0.3-0.1-0.4L13,19.7c-0.4-0.4-0.5-1-0.4-1.5c0.2-0.5,0.6-0.9,1.2-1l3.1-0.5    c0.2,0,0.3-0.1,0.4-0.3l1.4-2.8c0.3-0.5,0.8-0.8,1.3-0.8s1.1,0.3,1.3,0.8l1.4,2.8c0.1,0.1,0.2,0.2,0.4,0.3l3.1,0.5    c0.6,0.1,1,0.5,1.2,1c0.2,0.5,0,1.1-0.4,1.5l-2.2,2.2c-0.1,0.1-0.2,0.3-0.1,0.4l0.5,3.1c0.1,0.4-0.1,0.9-0.3,1.2    C24.5,27,24.1,27.2,23.7,27.2z"/>
	</symbol>

	<symbol viewBox="12 13 16 16" id="msg">
		<path fill="#231815" d="M27,26.4c-0.4,0-0.7-0.1-1-0.4l-1.6-1.4H15c-1.9,0-3.5-1.6-3.5-3.5v-4c0-1.9,1.6-3.5,3.5-3.5h10      c1.9,0,3.5,1.6,3.5,3.5v7.8C28.5,25.7,27.8,26.4,27,26.4z M15,14.6c-1.4,0-2.5,1.1-2.5,2.5v4c0,1.4,1.1,2.5,2.5,2.5h9.6      c0.1,0,0.2,0,0.3,0.1l1.8,1.6c0.3,0.3,0.8,0.1,0.8-0.4v-7.8c0-1.4-1.1-2.5-2.5-2.5H15z"/>
	</symbol>

	<symbol viewBox="12 13 15 15" id="arrow-l">
		<path d="M22,26.5c-0.1,0-0.3,0-0.4-0.1l-4.6-4.6c-0.5-0.5-0.7-1.1-0.7-1.8s0.3-1.3,0.7-1.8l4.6-4.6   c0.2-0.2,0.5-0.2,0.7,0s0.2,0.5,0,0.7l-4.6,4.6c-0.6,0.6-0.6,1.5,0,2.1l4.6,4.6c0.2,0.2,0.2,0.5,0,0.7   C22.3,26.5,22.1,26.5,22,26.5z"></path>
	</symbol>

	<symbol viewBox="12 13 15 15" id="arrow-r">
		<path d="M18,26.5c-0.1,0-0.3,0-0.4-0.1c-0.2-0.2-0.2-0.5,0-0.7l4.6-4.6c0.6-0.6,0.6-1.5,0-2.1l-4.6-4.6   c-0.2-0.2-0.2-0.5,0-0.7s0.5-0.2,0.7,0l4.6,4.6c0.5,0.5,0.7,1.1,0.7,1.8s-0.3,1.3-0.7,1.8l-4.6,4.6C18.3,26.5,18.1,26.5,18,26.5z   "></path>
	</symbol>

	<symbol viewBox="12 13 15 15" id="compare">
		<path  d="M28,28.5H12c-0.3,0-0.5-0.2-0.5-0.5V12c0-0.3,0.2-0.5,0.5-0.5s0.5,0.2,0.5,0.5v15.5H28      c0.3,0,0.5,0.2,0.5,0.5S28.3,28.5,28,28.5z"/>
		<path  d="M12,22.5c-0.2,0-0.3-0.1-0.4-0.2c-0.2-0.2-0.1-0.5,0.1-0.7l3.9-2.9c0.2-0.1,0.4-0.1,0.6,0L20,21l6.6-6.2      c0.2-0.2,0.5-0.2,0.7,0s0.2,0.5,0,0.7L20.4,22c-0.2,0.2-0.4,0.2-0.6,0.1L16,19.8l-3.6,2.7C12.2,22.5,12.1,22.5,12,22.5z"/>
		<path  d="M16.4,28v-4.4h-1V28h-1v-4.9c0-0.3,0.2-0.5,0.5-0.5h2c0.3,0,0.5,0.2,0.5,0.5V28H16.4z"/>
		<path  d="M20.9,28v-2.7h-1V28h-1v-3.2c0-0.3,0.2-0.5,0.5-0.5h2c0.3,0,0.5,0.2,0.5,0.5V28H20.9z"/>
		<path  d="M25.4,28v-5.9h-1V28h-1v-6.4c0-0.3,0.2-0.5,0.5-0.5h2c0.3,0,0.5,0.2,0.5,0.5V28H25.4z"/>
	</symbol>

	<symbol viewBox="11.5 11.5 16.5 16.5" id="coupon">
		<path d="M19.6,28.5L19.6,28.5c-0.1,0-0.3-0.1-0.4-0.1c-0.8-0.8-2.2-0.8-2.9,0c-0.2,0.2-0.5,0.2-0.7,0l-4-4     c-0.2-0.2-0.2-0.5,0-0.7c0.8-0.8,0.8-2.1,0-2.9c-0.2-0.2-0.2-0.5,0-0.7l8.4-8.4c0.1-0.1,0.2-0.1,0.4-0.1l0,0     c0.1,0,0.3,0.1,0.4,0.1c0.8,0.8,2.1,0.8,2.9,0c0.2-0.2,0.5-0.2,0.7,0l4,4c0.2,0.2,0.2,0.5,0,0.7c-0.8,0.8-0.8,2.1,0,2.9     c0.2,0.2,0.2,0.5,0,0.7L20,28.4C19.9,28.4,19.7,28.5,19.6,28.5z M12.7,24l3.3,3.3c1-0.7,2.5-0.7,3.6,0l7.7-7.7     c-0.8-1.1-0.8-2.5,0-3.6L24,12.7c-1,0.7-2.5,0.7-3.6,0l-7.7,7.7C13.4,21.5,13.4,22.9,12.7,24z"/>
		<path d="M21,23.3c-0.2,0-0.4-0.1-0.5-0.4l-1.7-5.9c-0.1-0.3,0.1-0.5,0.3-0.6c0.3-0.1,0.5,0.1,0.6,0.3l1.7,5.9      c0.1,0.3-0.1,0.5-0.3,0.6C21.1,23.3,21.1,23.3,21,23.3z"/>
		<path d="M23,20.9c-0.6,0-1-0.4-1-1s0.4-1,1-1c0.6,0,1,0.4,1,1S23.6,20.9,23,20.9z"/>
		<path d="M17.4,20.8c-0.6,0-1-0.4-1-1s0.4-1,1-1c0.6,0,1,0.4,1,1S17.9,20.8,17.4,20.8z"/>
	</symbol>

	<symbol viewBox="11.5 11.5 16.5 16.5" id="collection">
		<path d="M26.5,27h-13c-0.8,0-1.5-0.7-1.5-1.5v-11c0-0.8,0.7-1.5,1.5-1.5h4c0.8,0,1.5,0.7,1.5,1.5v1c0,0.3,0.2,0.5,0.5,0.5h7     c0.8,0,1.5,0.7,1.5,1.5v8C28,26.3,27.3,27,26.5,27z M13.5,14c-0.3,0-0.5,0.2-0.5,0.5v11c0,0.3,0.2,0.5,0.5,0.5h13     c0.3,0,0.5-0.2,0.5-0.5v-8c0-0.3-0.2-0.5-0.5-0.5h-7c-0.8,0-1.5-0.7-1.5-1.5v-1c0-0.3-0.2-0.5-0.5-0.5H13.5z"/>
		<path d="M21.2,24.4c-0.1,0-0.3,0-0.4-0.1L20,23.9l-0.9,0.4c-0.3,0.2-0.8,0.1-1-0.2c-0.2-0.2-0.2-0.4-0.2-0.7l0.1-1l-0.7-0.7     c-0.2-0.2-0.3-0.5-0.2-0.8c0.1-0.3,0.3-0.5,0.7-0.6l1-0.2l0.5-0.9c0.3-0.6,1.2-0.6,1.5,0l0.5,0.9l1,0.2c0.3,0.1,0.6,0.3,0.7,0.6     c0.1,0.3,0,0.6-0.2,0.8l-0.7,0.7l0.1,1c0,0.2,0,0.5-0.2,0.7C21.7,24.3,21.5,24.4,21.2,24.4z M18.3,21.3l0.5,0.5     c0.2,0.2,0.3,0.5,0.2,0.7L19,23.3l0.7-0.3c0.2-0.1,0.5-0.1,0.7,0l0.7,0.3l-0.1-0.7c0-0.3,0-0.5,0.2-0.7l0.5-0.5l-0.7-0.1     c-0.3,0-0.5-0.2-0.6-0.4L20,20.1l-0.3,0.7c-0.1,0.2-0.3,0.4-0.6,0.4L18.3,21.3z"/>

	</symbol>

	<symbol viewBox="11.5 11.5 16.5 16.5" id="add-collection">
		<path d="M26.5,27h-13c-0.8,0-1.5-0.7-1.5-1.5v-11c0-0.8,0.7-1.5,1.5-1.5h4c0.8,0,1.5,0.7,1.5,1.5v1c0,0.3,0.2,0.5,0.5,0.5h7    c0.8,0,1.5,0.7,1.5,1.5v8C28,26.3,27.3,27,26.5,27z M13.5,14c-0.3,0-0.5,0.2-0.5,0.5v11c0,0.3,0.2,0.5,0.5,0.5h13    c0.3,0,0.5-0.2,0.5-0.5v-8c0-0.3-0.2-0.5-0.5-0.5h-7c-0.8,0-1.5-0.7-1.5-1.5v-1c0-0.3-0.2-0.5-0.5-0.5H13.5z"/>
		<path d="M22,22.2h-4c-0.3,0-0.5-0.2-0.5-0.5s0.2-0.5,0.5-0.5h4c0.3,0,0.5,0.2,0.5,0.5S22.3,22.2,22,22.2z"/>
		<path d="M20,24.2c-0.3,0-0.5-0.2-0.5-0.5v-4c0-0.3,0.2-0.5,0.5-0.5s0.5,0.2,0.5,0.5v4C20.5,24,20.3,24.2,20,24.2z"/>

	</symbol>

	<symbol viewBox="11.5 11.5 16.5 16.5" id="sail">
		<path d="M17.7,29.5c-0.3,0-0.6-0.1-0.8-0.3l-6-6c-0.2-0.2-0.3-0.5-0.3-0.8s0.1-0.6,0.3-0.8l8.7-8.7c0.2-0.2,0.5-0.3,0.8-0.3h6      c0.6,0,1.1,0.5,1.1,1.1v6c0,0.3-0.1,0.6-0.3,0.8l-8.7,8.7C18.2,29.4,17.9,29.5,17.7,29.5z M20.3,13.5l-8.8,8.8c0,0,0,0.1,0,0.2      l6.1,6.1c0,0,0.1,0,0.1,0l8.7-8.7l0-6.1c0-0.1,0-0.1-0.1-0.1H20.3z"/>
		<path d="M23.5,17.5c-0.3,0-0.5-0.1-0.7-0.3c-0.4-0.4-0.4-1,0-1.4c0.4-0.4,1-0.4,1.4,0c0.4,0.4,0.4,1,0,1.4      C24,17.4,23.8,17.5,23.5,17.5z"/>
	</symbol>

	<symbol viewBox="11.5 11.5 16.5 16.5" id="list">
		<path d="M25.6,15.5h-6.8c-0.3,0-0.5-0.2-0.5-0.5s0.2-0.5,0.5-0.5h6.8c0.3,0,0.5,0.2,0.5,0.5       S25.9,15.5,25.6,15.5z"/>
		<path d="M25.6,20.5h-6.8c-0.3,0-0.5-0.2-0.5-0.5s0.2-0.5,0.5-0.5h6.8c0.3,0,0.5,0.2,0.5,0.5       S25.9,20.5,25.6,20.5z"/>
		<path d="M25.6,25.5h-6.8c-0.3,0-0.5-0.2-0.5-0.5s0.2-0.5,0.5-0.5h6.8c0.3,0,0.5,0.2,0.5,0.5       S25.9,25.5,25.6,25.5z"/>
		<path d="M15,16c-0.2,0-0.4-0.1-0.6-0.2L14,15.4c-0.2-0.2-0.2-0.5,0-0.7s0.5-0.2,0.7,0l0.2,0.2l0.7-0.8      c0.2-0.2,0.5-0.2,0.7,0c0.2,0.2,0.2,0.5,0,0.7l-0.9,0.9C15.4,15.9,15.2,16,15,16C15,16,15,16,15,16z"/>
		<path d="M15,21c-0.2,0-0.4-0.1-0.6-0.2L14,20.4c-0.2-0.2-0.2-0.5,0-0.7s0.5-0.2,0.7,0l0.2,0.2l0.7-0.8      c0.2-0.2,0.5-0.2,0.7,0c0.2,0.2,0.2,0.5,0,0.7l-0.9,0.9C15.4,20.9,15.2,21,15,21C15,21,15,21,15,21z"/>
		<path d="M15,26c-0.2,0-0.4-0.1-0.6-0.2L14,25.4c-0.2-0.2-0.2-0.5,0-0.7s0.5-0.2,0.7,0l0.2,0.2l0.7-0.8      c0.2-0.2,0.5-0.2,0.7,0c0.2,0.2,0.2,0.5,0,0.7l-0.9,0.9C15.4,25.9,15.2,26,15,26C15,26,15,26,15,26z"/>
	</symbol>

	<symbol viewBox="0 0 17 17" id="phone">
		<path d="M3.37,11.09A17.55,17.55,0,0,0,9.26,15.7a9,9,0,0,0,3.29,1h.24a2.72,2.72,0,0,0,2.11-.91l0,0c.2-.24.43-.46.66-.69l.49-.49a1.66,1.66,0,0,0,0-2.48L14,10a1.69,1.69,0,0,0-1.22-.56,1.71,1.71,0,0,0-1.23.56L10.3,11.25,10,11.07a2.69,2.69,0,0,1-.38-.2A13.17,13.17,0,0,1,6.45,8,7.32,7.32,0,0,1,5.39,6.33c.33-.29.63-.6.92-.9l.32-.32a1.78,1.78,0,0,0,.58-1.25,1.74,1.74,0,0,0-.58-1.24l-1-1-.35-.36C5,1,4.78.75,4.55.53A1.74,1.74,0,0,0,3.33,0,1.75,1.75,0,0,0,2.1.54L.81,1.83A2.69,2.69,0,0,0,0,3.53,6.45,6.45,0,0,0,.5,6.3,15.9,15.9,0,0,0,3.37,11.09ZM.86,3.6a1.81,1.81,0,0,1,.55-1.17L2.69,1.14A1,1,0,0,1,3.33.85a.87.87,0,0,1,.62.3c.23.21.45.44.69.68L5,2.19l1,1a1,1,0,0,1,.32.65A1,1,0,0,1,6,4.52l-.32.32c-.33.33-.63.63-1,.93h0a.69.69,0,0,0-.17.77v0a8.08,8.08,0,0,0,1.22,2,13.66,13.66,0,0,0,3.33,3c.15.1.31.17.45.25a2.7,2.7,0,0,1,.38.21l0,0a.71.71,0,0,0,.85-.15l1.3-1.3a.89.89,0,0,1,.63-.3.87.87,0,0,1,.61.3l2.09,2.09a.83.83,0,0,1,0,1.3l-.46.46a8.65,8.65,0,0,0-.73.75,1.88,1.88,0,0,1-1.48.63h-.18a8.22,8.22,0,0,1-3-.89A16.78,16.78,0,0,1,4,10.56,15.53,15.53,0,0,1,1.29,6,5.57,5.57,0,0,1,.86,3.6Z"></path>
	</symbol>

  <symbol viewBox="0 0 10 15" id="mark">
    <path xmlns="http://www.w3.org/2000/svg" d="M5.21212 14.8745C7.18182 12.6778 10 8.28452 10 5.17782C10 2.32218 7.75758 0 5 0C2.24242 0 0 2.32218 0 5.17782C0 8.41004 2.87879 12.5523 4.90909 14.8745C5.06061 15.0628 5.06061 15.0628 5.21212 14.8745ZM5 8.03347C3.48485 8.03347 2.24242 6.74686 2.24242 5.17782C2.24242 3.60879 3.48485 2.32218 5 2.32218C6.51515 2.32218 7.75758 3.60879 7.75758 5.17782C7.75758 6.74686 6.51515 8.03347 5 8.03347Z" fill="#2799CE"/>
  </symbol>
  <symbol viewBox="0 0 8 8" id="arrow-btn">
    <path xmlns="http://www.w3.org/2000/svg" d="M2.6 0.544L3.528 3.36L4.28 5.52L4.344 5.52L5.096 3.36L6.024 0.544L7.96 0.544L5.128 7.904L3.496 7.904L0.664 0.543999L2.6 0.544Z"/>
  </symbol>
  <symbol viewBox="0 0 15 15" id="search">
    <path xmlns="http://www.w3.org/2000/svg" d="M14.4604 13.5971L11.0072 10.1439C11.8705 9.06475 12.4101 7.71583 12.4101 6.20504C12.4101 2.80576 9.60432 0 6.20504 0C2.80576 0 0 2.80576 0 6.20504C0 9.60432 2.80576 12.4101 6.20504 12.4101C7.55396 12.4101 8.79496 11.9784 9.82014 11.277L13.3273 14.7842C13.4892 14.946 13.705 15 13.9209 15C14.1367 15 14.3525 14.946 14.5144 14.7842C14.7842 14.4604 14.7842 13.9209 14.4604 13.5971ZM1.61871 6.20504C1.61871 3.66906 3.66906 1.61871 6.20504 1.61871C8.74101 1.61871 10.7914 3.66906 10.7914 6.20504C10.7914 8.74101 8.74101 10.7914 6.20504 10.7914C3.66906 10.7914 1.61871 8.74101 1.61871 6.20504Z"/>
  </symbol>
  <symbol viewBox="0 0 19 20" id="user">
    <path xmlns="http://www.w3.org/2000/svg" d="M9.04112 12.6027C5.58906 12.6027 2.73975 9.75342 2.73975 6.30137C2.73975 2.84931 5.58906 0 9.04112 0C12.4932 0 15.3425 2.84931 15.3425 6.30137C15.3425 9.75342 12.4932 12.6027 9.04112 12.6027ZM9.04112 1.64384C6.46577 1.64384 4.38358 3.72603 4.38358 6.30137C4.38358 8.87671 6.46577 10.9589 9.04112 10.9589C11.6165 10.9589 13.6987 8.87671 13.6987 6.30137C13.6987 3.72603 11.6165 1.64384 9.04112 1.64384Z" fill="#0D0E0F"/>
    <path xmlns="http://www.w3.org/2000/svg" d="M18.0822 20.0001H16.4384C16.4384 15.9453 13.0959 12.6028 9.0411 12.6028C4.9863 12.6028 1.64384 15.9453 1.64384 20.0001H0C0 15.0138 4.05479 10.959 9.0411 10.959C14.0274 10.959 18.0822 15.0138 18.0822 20.0001Z"/>
  </symbol>
  <symbol viewBox="0 0 23 20" id="heart">
  <path xmlns="http://www.w3.org/2000/svg" d="M20.3038 2.71401C19.2041 1.61437 17.7483 1.01336 16.1946 1.01336C14.6409 1.01336 13.1806 1.61882 12.081 2.71846L11.5067 3.29276L10.9235 2.70956C9.82383 1.60992 8.35913 1 6.8054 1C5.25611 1 3.79586 1.60547 2.70068 2.70065C1.60104 3.80029 0.995572 5.26054 1.00002 6.81427C1.00002 8.36801 1.60994 9.82381 2.70958 10.9234L11.0704 19.2842C11.1861 19.4 11.342 19.4623 11.4933 19.4623C11.6447 19.4623 11.8005 19.4044 11.9163 19.2887L20.2949 10.9412C21.3945 9.84161 22 8.38137 22 6.82763C22.0044 5.27389 21.4034 3.81365 20.3038 2.71401ZM19.449 10.0909L11.4933 18.0154L3.55546 10.0776C2.68287 9.20498 2.20206 8.04747 2.20206 6.81427C2.20206 5.58108 2.67842 4.42357 3.551 3.55543C4.41914 2.6873 5.57665 2.20648 6.8054 2.20648C8.03859 2.20648 9.20056 2.6873 10.0731 3.55988L11.0793 4.56603C11.3152 4.80198 11.6937 4.80198 11.9296 4.56603L12.9269 3.56879C13.7994 2.6962 14.9614 2.21539 16.1902 2.21539C17.4189 2.21539 18.5764 2.6962 19.449 3.56434C20.3216 4.43692 20.7979 5.59443 20.7979 6.82763C20.8024 8.06083 20.3216 9.21834 19.449 10.0909Z"  stroke-width="0.4"/>
</symbol>
  <symbol viewBox="0 0 20 20" id="cart">
    <path xmlns="http://www.w3.org/2000/svg" d="M15.8365 14.165C14.4615 14.165 13.3428 15.2838 13.3428 16.6588C13.3428 18.0338 14.4615 19.1526 15.8365 19.1526C17.2116 19.1526 18.3303 18.0338 18.3303 16.6588C18.3303 15.2838 17.2116 14.165 15.8365 14.165ZM15.8365 17.6563C15.2864 17.6563 14.839 17.2089 14.839 16.6588C14.839 16.1087 15.2864 15.6613 15.8365 15.6613C16.3867 15.6613 16.834 16.1087 16.834 16.6588C16.834 17.2089 16.3867 17.6563 15.8365 17.6563Z" />
    <path xmlns="http://www.w3.org/2000/svg" d="M19.841 4.52619C19.6994 4.3449 19.4821 4.23916 19.252 4.23916H4.618L3.94467 1.42196C3.86412 1.08531 3.56311 0.847656 3.21697 0.847656H0.748129C0.334924 0.847617 0 1.18254 0 1.59575C0 2.00895 0.334924 2.34388 0.748129 2.34388H2.62646L5.05788 12.5175C5.13843 12.8544 5.43945 13.0918 5.78558 13.0918H17.4315C17.7755 13.0918 18.0752 12.8574 18.1577 12.5237L19.9782 5.16706C20.0333 4.94366 19.9827 4.70748 19.841 4.52619ZM16.8462 11.5956H6.37609L4.97558 5.73542H18.2961L16.8462 11.5956Z" />
    <path xmlns="http://www.w3.org/2000/svg" d="M6.78283 14.165C5.40774 14.165 4.28906 15.2838 4.28906 16.6588C4.28906 18.0338 5.40778 19.1526 6.78283 19.1526C8.15787 19.1526 9.27659 18.0338 9.27659 16.6588C9.27659 15.2838 8.15787 14.165 6.78283 14.165ZM6.78283 17.6563C6.23271 17.6563 5.78532 17.2089 5.78532 16.6588C5.78532 16.1087 6.23271 15.6613 6.78283 15.6613C7.33295 15.6613 7.78033 16.1087 7.78033 16.6588C7.78033 17.2089 7.33295 17.6563 6.78283 17.6563Z" />
  </symbol>
  <symbol viewBox="0 0 22 17" id="logout">
    <path xmlns="http://www.w3.org/2000/svg" d="M17.4522 12.2906L16.8877 11.7261L20.1135 8.50028L16.8877 5.27448L17.4522 4.70996L21.2425 8.50028L17.4522 12.2906Z" stroke-width="0.3"/>

    <path xmlns="http://www.w3.org/2000/svg" d="M20.759 8.09668H8.50098V8.90313H20.759V8.09668Z"  stroke-width="0.3"/>
    <path xmlns="http://www.w3.org/2000/svg" d="M13.3386 13.0966C12.1289 14.3869 10.4353 15.1934 8.49984 15.1934C4.79016 15.1934 1.80629 12.2095 1.80629 8.49984C1.80629 4.79016 4.79016 1.80629 8.49984 1.80629C10.4353 1.80629 12.1289 2.61275 13.3386 3.90307L13.8224 3.4192C12.4515 2.04823 10.5966 1.16113 8.49984 1.16113C4.46758 1.16113 1.16113 4.46758 1.16113 8.49984C1.16113 12.5321 4.46758 15.8386 8.49984 15.8386C10.5966 15.8386 12.4515 14.9515 13.8224 13.5805L13.3386 13.0966Z" stroke-width="0.3"/>
    <path xmlns="http://www.w3.org/2000/svg" d="M8.5 16C4.3871 16 1 12.6129 1 8.5C1 4.3871 4.3871 1 8.5 1C10.5161 1 12.4516 1.80645 13.9032 3.33871L13.9839 3.41935L13.4194 3.98387L13.3387 3.90323C12.0484 2.6129 10.3548 1.80645 8.58064 1.80645C4.95161 1.80645 1.96774 4.79032 1.96774 8.41935C1.96774 12.0484 4.95161 15.0323 8.58064 15.0323C10.3548 15.0323 12.0484 14.3064 13.3387 12.9355L13.4194 12.8548L13.9839 13.4194L13.9032 13.5C12.4516 15.1129 10.5968 16 8.5 16ZM8.5 1.24194C4.46774 1.24194 1.24193 4.46774 1.24193 8.5C1.24193 12.5323 4.46774 15.7581 8.5 15.7581C10.4355 15.7581 12.2903 14.9516 13.6613 13.5806L13.3387 13.2581C12.0484 14.5484 10.3548 15.2742 8.5 15.2742C4.70968 15.2742 1.64516 12.2097 1.64516 8.41935C1.64516 4.62903 4.70968 1.56452 8.5 1.56452C10.3548 1.56452 12.0484 2.29032 13.3387 3.58065L13.6613 3.25807C12.2903 2.04839 10.4355 1.24194 8.5 1.24194Z"  stroke-width="0.3"/>
  </symbol>
  <symbol viewBox="0 0 10 10" id="cross">
    <rect xmlns="http://www.w3.org/2000/svg" y="9.09082" width="12.8565" height="1.28565" transform="rotate(-45 0 9.09082)" />
    <rect xmlns="http://www.w3.org/2000/svg" x="0.90918" width="12.8565" height="1.28565" transform="rotate(45 0.90918 0)" />
  </symbol>
  <symbol viewBox="0 0 32 25" id="tricycle">
      <path d="M12.2186 18.0645C12.2186 18.8713 11.5601 19.5293 10.7528 19.5293C9.94555 19.5293 9.28711 18.8713 9.28711 18.0645C9.28711 17.2577 9.94555 16.5996 10.7528 16.5996C11.5659 16.5996 12.2186 17.2577 12.2186 18.0645Z" fill="#E8F1F9"/>
      <path d="M8.31364 18.0646C8.31364 17.8815 8.33654 17.6984 8.37662 17.521C8.27356 17.3493 8.1476 17.1891 8.01018 17.0403C7.93575 17.2292 7.88422 17.4237 7.86132 17.624C8.15905 18.036 8.31936 18.5338 8.31364 19.0374C8.31364 19.2205 8.29646 19.4036 8.25638 19.581C8.35944 19.7526 8.47968 19.9129 8.61709 20.0616C8.69152 19.8728 8.74305 19.6782 8.76596 19.478C8.46823 19.0717 8.30791 18.5739 8.31364 18.0646ZM10.7527 14.1621C9.224 14.1621 7.83842 15.049 7.20288 16.4395C7.13418 16.5883 7.07692 16.7371 7.02539 16.8916C7.35747 17.069 7.63802 17.3207 7.85559 17.6297C8.15332 18.0417 8.31364 18.5395 8.30791 19.0431C8.31364 19.6039 8.11897 20.1475 7.75826 20.5823C7.86132 20.7082 7.97583 20.8284 8.10179 20.9371C9.39004 22.1216 11.3024 22.3104 12.7967 21.3949C14.2854 20.4793 14.9896 18.6883 14.5144 17.006C14.0392 15.3237 12.5047 14.1621 10.7527 14.1621ZM10.7527 20.508C9.40149 20.508 8.31364 19.415 8.30791 18.0646C8.30791 17.8815 8.33081 17.6984 8.37089 17.521C8.65717 16.2736 9.85381 15.461 11.1134 15.6499C12.3788 15.8387 13.2777 16.9717 13.1861 18.2477C13.0945 19.5237 12.0352 20.508 10.7527 20.508Z" fill="#E8F1F9"/>
      <path d="M5.86855 15.1348C3.71002 15.1348 1.95801 16.8857 1.95801 19.043C1.95801 21.2002 3.71002 22.9512 5.86855 22.9512C8.02708 22.9512 9.77909 21.2002 9.77909 19.043C9.77909 18.0073 9.36685 17.0116 8.63398 16.2792C7.90111 15.5468 6.90487 15.1348 5.86855 15.1348ZM5.86855 21.4863C4.51732 21.4863 3.42375 20.3934 3.42375 19.043C3.42375 17.6926 4.51732 16.5996 5.86855 16.5996C7.21978 16.5996 8.31335 17.6926 8.31335 19.043C8.31335 20.3934 7.21978 21.4863 5.86855 21.4863Z" fill="#E8F1F9"/>
      <path d="M24.4362 11.2324C21.1955 11.2324 18.5732 13.8532 18.5732 17.0919C18.5732 20.3306 21.1955 22.9514 24.4362 22.9514C27.6769 22.9514 30.2992 20.3306 30.2992 17.0919C30.2992 15.5355 29.6808 14.0477 28.5815 12.9491C27.4822 11.8447 25.9878 11.2324 24.4362 11.2324ZM24.4362 21.4865C22.6556 21.4865 21.0524 20.4164 20.3711 18.7742C19.6897 17.1319 20.0676 15.2436 21.3215 13.9848C22.5754 12.7259 24.4706 12.354 26.1138 13.0349C27.757 13.7158 28.8277 15.318 28.8277 17.0976C28.8334 19.5181 26.8638 21.4865 24.4362 21.4865Z" fill="#E8F1F9"/>
      <path d="M25.9022 17.0918C25.9022 17.8986 25.2437 18.5567 24.4364 18.5567C23.6291 18.5567 22.9707 17.8986 22.9707 17.0918C22.9707 16.285 23.6291 15.627 24.4364 15.627C25.2437 15.627 25.9022 16.2793 25.9022 17.0918Z" fill="#E8EDFC"/>
      <path d="M8.01003 8.78906H14.6459C14.8978 8.78906 15.1097 8.97789 15.1326 9.22967C15.1727 9.7561 15.0696 10.5572 14.0848 10.5572C12.6191 10.5572 13.1058 10.5572 11.1533 11.4441C9.2811 12.291 6.51566 11.1122 7.56916 9.06945C7.64932 8.89778 7.82108 8.78906 8.01003 8.78906Z" fill="#E8F1F9"/>
      <path d="M14.6634 1.95117H17.5949C17.864 1.95117 18.0816 2.16861 18.0816 2.43755V3.41604C18.0816 3.68498 17.864 3.90242 17.5949 3.90242H14.6634C14.3943 3.90242 14.1768 3.68498 14.1768 3.41604V2.44328C14.1768 2.17434 14.3943 1.95117 14.6634 1.95117Z" fill="#E8F1F9"/>
      <path d="M21.9916 0.486328H23.944C24.2131 0.486328 24.4306 0.703769 24.4306 0.972709V1.95119C24.4306 2.22013 24.2131 2.43757 23.944 2.43757H21.9916C21.7225 2.43757 21.5049 2.22013 21.5049 1.95119V0.978431C21.5049 0.709491 21.7225 0.486328 21.9916 0.486328Z" fill="#CADEF9"/>
      <path d="M21.9916 0.486328H22.5927C22.8618 0.486328 23.0794 0.703769 23.0794 0.972709V1.95119C23.0794 2.22013 22.8618 2.43757 22.5927 2.43757H21.9916C21.7225 2.43757 21.5049 2.22013 21.5049 1.95119V0.978431C21.5049 0.709491 21.7225 0.486328 21.9916 0.486328Z" fill="#E8F1F9"/>
      <path d="M7.3348 19.043C7.3348 19.8498 6.67636 20.5079 5.86906 20.5079C5.06176 20.5079 4.40332 19.8498 4.40332 19.043C4.40332 18.2362 5.06176 17.5781 5.86906 17.5781C6.67636 17.5781 7.3348 18.2362 7.3348 19.043Z" fill="#E8EDFC"/>
      <path d="M5.86878 22.9511C6.11497 22.9511 6.36117 22.9282 6.60164 22.8825C4.75802 22.5334 3.42397 20.9198 3.42397 19.0486C3.42397 17.1775 4.75802 15.5638 6.60164 15.2148C5.14163 14.9344 3.65299 15.5066 2.75408 16.6911C1.85517 17.8756 1.70631 19.4606 2.36474 20.7882C3.02891 22.11 4.38586 22.9511 5.86878 22.9511Z" fill="white"/>
      <path d="M9.47593 8.78906H8.01019C7.82125 8.78906 7.64948 8.89778 7.56933 9.06945C6.62461 10.9005 8.74879 12.0335 10.5466 11.6387C9.28699 11.364 8.34227 10.4027 9.03506 9.06945C9.11522 8.89778 9.28699 8.78906 9.47593 8.78906Z" fill="white"/>
      <path d="M11.5024 14.2306C11.2562 14.1849 11.0043 14.1562 10.7524 14.1562C9.76184 14.1562 8.8114 14.5339 8.0957 15.2091C8.47931 15.2835 8.85148 15.4151 9.19501 15.6039C9.77329 14.8887 10.592 14.4023 11.5024 14.2306Z" fill="white"/>
      <path d="M23.8064 16.257C23.6174 16.257 23.4456 16.1483 23.3655 15.9766L19.9473 8.76098C19.6382 8.1201 19.8386 7.35334 20.4168 6.94134L23.1708 4.97293C23.3884 4.81843 23.6918 4.86993 23.8464 5.08737C24.001 5.30481 23.9552 5.60809 23.7377 5.76831L20.9837 7.73672C20.789 7.87405 20.726 8.12583 20.8291 8.33754L24.253 15.5589C24.3274 15.7077 24.3159 15.885 24.2243 16.0281C24.1327 16.1711 23.9781 16.257 23.8064 16.257Z" fill="#2799CE"/>
      <path d="M23.4063 5.89955C23.2345 5.89955 23.057 5.88238 22.891 5.85377C21.8375 5.72789 20.8756 5.19001 20.2229 4.3603C19.7419 3.81669 19.3927 3.42187 18.0873 3.42187C17.8182 3.42187 17.6006 3.20443 17.6006 2.93549C17.6006 2.66654 17.8182 2.4491 18.0873 2.4491C19.8335 2.4491 20.429 3.12432 20.9558 3.71942C21.4653 4.38319 22.2211 4.81235 23.057 4.89818C24.2365 5.08701 25.0037 4.29163 25.3072 2.51777C25.3301 2.38044 25.29 2.23739 25.2041 2.12866C25.1125 2.01994 24.9694 1.95128 24.8262 1.95128H24.4369C24.1678 1.95128 23.9502 1.73384 23.9502 1.4649C23.9502 1.19596 24.1678 0.978516 24.4369 0.978516H24.8262C25.2614 0.978516 25.6736 1.16735 25.9541 1.49923C26.229 1.82539 26.3492 2.26027 26.2748 2.68371C25.9141 4.75512 24.8835 5.89955 23.4063 5.89955Z" fill="#2799CE"/>
      <path d="M13.4037 15.2725C13.1918 15.2725 13.0086 15.1352 12.9399 14.9406L11.7547 11.3872C11.6975 11.2213 11.7318 11.0324 11.8463 10.9008C11.9609 10.7692 12.1441 10.7063 12.3158 10.7463C12.4876 10.7864 12.6307 10.9123 12.6823 11.0782L13.8675 14.6316C13.9533 14.8891 13.8159 15.1638 13.5583 15.2496C13.5068 15.2668 13.4552 15.2725 13.4037 15.2725Z" fill="#2799CE"/>
      <path d="M24.4368 19.0431C23.3547 19.0431 22.4844 18.1676 22.4844 17.0919C22.4844 16.0161 23.3604 15.1406 24.4368 15.1406C25.5132 15.1406 26.3892 16.0161 26.3892 17.0919C26.3892 18.1676 25.5132 19.0431 24.4368 19.0431ZM24.4368 16.1134C23.8986 16.1134 23.4577 16.5483 23.4577 17.0919C23.4577 17.6355 23.8929 18.0704 24.4368 18.0704C24.9807 18.0704 25.4159 17.6355 25.4159 17.0919C25.4101 16.5483 24.975 16.1134 24.4368 16.1134Z" fill="#2799CE"/>
      <path d="M5.86843 20.9943C4.7863 20.9943 3.91602 20.1188 3.91602 19.043C3.91602 17.9673 4.79202 17.0918 5.86843 17.0918C6.94483 17.0918 7.82084 17.9673 7.82084 19.043C7.82084 20.1188 6.94483 20.9943 5.86843 20.9943ZM5.86843 18.0646C5.33023 18.0646 4.88936 18.4994 4.88936 19.043C4.88936 19.5866 5.3245 20.0215 5.86843 20.0215C6.41235 20.0215 6.84749 19.5866 6.84749 19.043C6.84749 18.5052 6.40663 18.0646 5.86843 18.0646Z" fill="#2799CE"/>
      <path d="M17.5941 4.39458H14.6627C14.1245 4.39458 13.6836 3.95969 13.6836 3.41609V2.44333C13.6836 1.90545 14.1187 1.46484 14.6627 1.46484H17.5941C18.1323 1.46484 18.5732 1.89973 18.5732 2.44333V3.42181C18.5732 3.95969 18.1323 4.39458 17.5941 4.39458ZM14.6627 2.44333V3.42181H17.5941V2.44333H14.6627Z" fill="#2799CE"/>
      <path d="M23.9442 2.92973H21.9918C21.4536 2.92973 21.0127 2.49485 21.0127 1.95125V0.978485C21.0127 0.434882 21.4536 0 21.9918 0H23.9442C24.4824 0 24.9232 0.434882 24.9232 0.978485V1.95697C24.9232 2.49485 24.4881 2.92973 23.9442 2.92973ZM21.9918 0.978485V1.95697H23.9442V0.978485H21.9918Z" fill="#2799CE"/>
      <path d="M8.58249 19.5299H7.33433C7.06523 19.5299 6.84766 19.3125 6.84766 19.0435C6.84766 18.7746 7.06523 18.5571 7.33433 18.5571H8.58249C8.78861 18.5571 8.99473 18.4885 9.16077 18.3626C9.21803 18.3225 9.26956 18.2768 9.31536 18.2195C9.33827 18.1909 9.36117 18.1623 9.3898 18.1337L9.53866 17.9506C9.84784 17.5787 10.3173 17.0179 10.9013 16.3713C11.5025 15.6961 12.0808 15.0953 12.6705 14.5288C12.7736 14.4258 12.8824 14.3228 13.0026 14.214C15.6707 11.6906 18.3102 10.0426 20.8352 9.31018C21.0928 9.23579 21.3619 9.38457 21.4363 9.64206C21.5108 9.89956 21.3619 10.1685 21.1043 10.2486C18.7339 10.9353 16.2318 12.5089 13.6668 14.9293C13.5523 15.0323 13.4492 15.1296 13.3519 15.2269C12.7736 15.7819 12.2125 16.3656 11.6285 17.0236C11.0559 17.6588 10.5922 18.2138 10.2887 18.58L10.1055 18.7975C10.0998 18.8032 10.0769 18.8318 10.0711 18.8375C9.9738 18.9577 9.86502 19.0607 9.73905 19.1465C9.4127 19.3983 9.00619 19.5356 8.58249 19.5299Z" fill="#2799CE"/>
      <path d="M9.81291 12.2052C8.87392 12.2396 7.96928 11.8733 7.31657 11.1981C6.68104 10.4543 6.68676 9.47577 7.3223 8.52017C7.41391 8.38284 7.5685 8.30273 7.72881 8.30273H15.0575C15.2751 8.30273 15.4697 8.45151 15.527 8.66323C15.7102 9.28122 15.6301 9.95071 15.3037 10.5058C15.006 10.872 14.5537 11.078 14.0784 11.0494C13.0936 11.0494 13.0936 11.0494 12.4409 11.3698C12.1833 11.4957 11.8455 11.6616 11.3474 11.8905C10.8664 12.1022 10.3454 12.2109 9.81291 12.2052ZM8.00936 9.2755C7.74026 9.67032 7.76316 10.191 8.06662 10.563C8.63345 11.2325 9.98467 11.4327 10.9523 10.9979C11.4332 10.7804 11.7653 10.6145 12.0115 10.4943C12.836 10.088 12.9161 10.0709 14.0842 10.0709C14.4105 10.0709 14.5021 9.95071 14.5308 9.91638C14.6395 9.72182 14.6796 9.49866 14.6453 9.28122L8.00936 9.2755Z" fill="#2799CE"/>
      <path d="M24.4365 23.4378C20.9268 23.4378 18.0869 20.5939 18.0869 17.0919C18.0869 13.5843 20.9325 10.7461 24.4365 10.7461C27.9406 10.7461 30.7862 13.5843 30.7862 17.0919C30.7804 20.5939 27.9406 23.4321 24.4365 23.4378ZM24.4365 11.7189C21.4707 11.7189 19.0603 14.1222 19.0603 17.0919C19.0603 20.056 21.465 22.465 24.4365 22.465C27.4081 22.465 29.8128 20.0617 29.8128 17.0919C29.8071 14.1279 27.4024 11.7246 24.4365 11.7189Z" fill="#2799CE"/>
      <path d="M2.45075 19.043C2.45075 20.9313 3.97947 22.4591 5.8689 22.4591V23.4376C3.44127 23.4376 1.47168 21.4692 1.47168 19.043H2.45075Z" fill="white"/>
      <path d="M2.56526 21.1201C2.77138 20.9999 2.86871 20.7539 2.79428 20.525C2.57098 20.0615 2.45647 19.558 2.45075 19.043H1.47168C1.47168 19.701 1.62627 20.3533 1.91255 20.9484C1.9698 21.0629 2.07286 21.1487 2.19882 21.183C2.32479 21.2174 2.45647 21.1945 2.56526 21.1201Z" fill="#2799CE"/>
      <path d="M5.86956 23.4377V22.4592C5.61191 22.4535 5.35999 22.4249 5.10807 22.3734C4.86759 22.3505 4.65002 22.4993 4.58132 22.7282C4.53551 22.8483 4.54124 22.9857 4.59849 23.1001C4.65575 23.2146 4.76453 23.3004 4.8905 23.329C5.21113 23.3977 5.54321 23.432 5.86956 23.4377Z" fill="#2799CE"/>
      <path d="M3.73864 21.715C3.65275 21.6521 3.54397 21.6235 3.43518 21.6406L3.3493 21.6635C3.32067 21.675 3.28632 21.6864 3.25769 21.7036C3.22906 21.715 3.20043 21.7322 3.17753 21.7494C3.1489 21.7665 3.126 21.7894 3.1031 21.8123C3.01149 21.9039 2.95996 22.024 2.95996 22.1499C2.96569 22.2129 2.98286 22.2758 3.01149 22.333C3.1031 22.5104 3.29204 22.6077 3.48671 22.5734C3.54969 22.5562 3.60695 22.5276 3.65848 22.4875C3.71001 22.4475 3.75581 22.4017 3.79016 22.3502C3.85315 22.2415 3.8875 22.1213 3.87605 21.9954C3.87032 21.8867 3.81879 21.7837 3.73864 21.715Z" fill="#2799CE"/>
      <path d="M5.86904 23.4376C5.59994 23.4376 5.38237 23.2202 5.38237 22.9513C5.38237 22.6823 5.59994 22.4649 5.86904 22.4649C7.75847 22.4649 9.28719 20.9371 9.28719 19.0488C9.28719 17.1605 7.75847 15.6326 5.86904 15.6326C3.97961 15.6326 2.45089 17.1605 2.45089 19.0488C2.45089 19.3177 2.23332 19.5351 1.96422 19.5351C1.69512 19.5351 1.47755 19.3177 1.47755 19.0488C1.47183 16.6169 3.44141 14.6484 5.86904 14.6484C8.29667 14.6484 10.2663 16.6168 10.2663 19.043C10.2663 21.4692 8.29667 23.4376 5.86904 23.4376Z" fill="#2799CE"/>
      <path d="M10.7527 20.0214C10.266 20.0214 9.79652 19.8383 9.44154 19.5122C9.24687 19.3291 9.23542 19.0201 9.41863 18.8255C9.60185 18.631 9.91103 18.6138 10.1057 18.7969C10.2832 18.9628 10.5179 19.0487 10.7584 19.0487C11.2966 19.0487 11.7375 18.6138 11.7375 18.0702C11.7375 17.6639 11.4856 17.3034 11.1077 17.1604C10.8557 17.0688 10.7298 16.7884 10.8214 16.5367C10.913 16.2849 11.1878 16.1533 11.4397 16.2391C12.3272 16.5653 12.854 17.4808 12.6879 18.4135C12.5104 19.3462 11.7031 20.0214 10.7527 20.0214Z" fill="#2799CE"/>
      <path d="M10.7529 22.4592C10.0258 22.4592 9.31011 22.2761 8.66885 21.9328C8.51426 21.8469 8.41692 21.6924 8.41692 21.515C8.4112 21.3434 8.50281 21.1774 8.65167 21.0859C8.80053 20.9943 8.98948 20.9886 9.13834 21.0744C10.73 21.9328 12.7111 21.4006 13.6615 19.8671C14.612 18.3335 14.2054 16.3251 12.7283 15.2779C12.1557 14.8602 11.4629 14.6428 10.7529 14.6428C9.72235 14.637 8.74328 15.1063 8.10202 15.9074C7.93025 16.1191 7.6268 16.1477 7.41495 15.9817C7.20311 15.8101 7.17448 15.5068 7.34052 15.2951C8.17072 14.2651 9.43034 13.6643 10.7529 13.67C11.6633 13.6643 12.5565 13.9504 13.2951 14.4825C14.8582 15.5869 15.5223 17.5782 14.944 19.3979C14.3658 21.2232 12.671 22.4649 10.7529 22.4592Z" fill="#2799CE"/>
      <path d="M7.19175 20.1591C7.06006 20.1591 6.93983 20.1076 6.84822 20.0161C6.75661 19.9245 6.70508 19.7987 6.70508 19.6728V19.667C6.70508 19.3981 6.92837 19.1807 7.19748 19.1807C7.46658 19.1807 7.68415 19.3981 7.68415 19.6728C7.67842 19.9417 7.46085 20.1591 7.19175 20.1591Z" fill="#2799CE"/>
  </symbol>
  <symbol viewBox="0 0 24 25" id="airplane">
      <path d="M14.3008 5.5586L11.2232 4.36791L7.74796 3.02901L6.00801 2.35709L2.78536 1.11205C2.63101 1.05277 2.45795 1.09229 2.34102 1.21581L0.540265 3.11794C0.44672 3.21181 0.404624 3.35015 0.418656 3.48355C0.432688 3.61694 0.507524 3.74046 0.619779 3.80963L10.2924 9.94092L14.3008 5.5586Z" fill="#E8F1F9"/>
      <path d="M11.2224 4.36816L12.0269 3.51839C12.3543 3.17255 12.3543 2.60933 12.0269 2.26349C11.6995 1.92259 11.1709 1.92259 10.8389 2.26349L9.48242 3.69625L11.2224 4.36816Z" fill="#E8F1F9"/>
      <path d="M7.747 3.02905L8.76665 1.952C9.09406 1.60616 9.09406 1.04293 8.76665 0.697083C8.43924 0.356181 7.9107 0.356181 7.57861 0.697083L6.01172 2.35713L7.747 3.02905Z" fill="#E8F1F9"/>
      <path d="M22.5179 22.5248L20.7124 24.427C20.6189 24.5209 20.4926 24.5703 20.3663 24.5505C20.24 24.5307 20.1231 24.4566 20.0576 24.3381L19.8705 24.0021L14.2578 14.1208L17.4898 10.8254L18.4066 9.88672L19.5338 13.1377L20.1652 14.9756L20.7966 16.8085L21.4327 18.6415L22.6114 22.0456C22.6675 22.2185 22.6301 22.3964 22.5179 22.5248Z" fill="#CADEF9"/>
      <path d="M21.2737 22.5245L19.8705 24.0067L14.2578 14.1255L17.4898 10.8301L18.2896 13.1423L18.9211 14.9802L19.5525 16.8132L20.1886 18.6461L21.3673 22.0502C21.4234 22.2182 21.386 22.3961 21.2737 22.5245Z" fill="#E8F1F9"/>
      <path d="M20.1664 14.9803L21.5228 13.5475C21.8455 13.2017 21.8455 12.6434 21.5228 12.2926C21.1954 11.9467 20.6622 11.9467 20.3348 12.2926L19.5303 13.1424L20.1664 14.9803Z" fill="#E8F1F9"/>
      <path d="M21.433 18.6518L23.0046 16.9967C23.3273 16.6509 23.3273 16.0926 23.0046 15.7418C22.6772 15.396 22.1439 15.396 21.8165 15.7418L20.7969 16.8188L21.433 18.6518Z" fill="#E8F1F9"/>
      <path d="M6.55066 15.0595L2.44399 14.516C2.31303 14.4963 2.18674 14.5457 2.09319 14.6395L1.47579 15.2917C1.37757 15.3955 1.33547 15.5387 1.35886 15.682C1.38224 15.8253 1.47111 15.9439 1.5974 16.0081L5.11473 17.7422L6.55066 15.0595Z" fill="#E8F1F9"/>
      <path d="M9.41186 18.0781L9.92637 22.416C9.94508 22.5543 9.89831 22.6877 9.80944 22.7865L9.19203 23.4387C9.0938 23.5424 8.95816 23.5869 8.82252 23.5622C8.68688 23.5375 8.57462 23.4436 8.51381 23.3102L6.87207 19.5949L9.41186 18.0781Z" fill="#E8F1F9"/>
      <path d="M17.0701 11.3541C12.3227 16.3688 6.0598 21.0229 4.90918 19.8124C4.77354 19.6494 4.70806 19.4369 4.72677 19.2196C4.74548 17.1544 8.69311 11.4282 12.9214 6.96682C16.9251 2.73271 19.8999 0.98867 21.42 1.28017C21.682 1.31969 21.9252 1.44815 22.1123 1.64577C23.2629 2.85128 21.8223 6.33442 17.0701 11.3541Z" fill="#CADEF9"/>
      <path d="M16.1192 10.5834C12.0313 14.9064 6.82548 18.9528 4.7207 19.2196C4.73941 17.1544 8.68704 11.4282 12.9153 6.96683C16.9237 2.73271 19.8985 0.988669 21.4186 1.28017C22.0079 2.75247 20.4177 6.04294 16.1192 10.5834Z" fill="#E8F1F9"/>
      <path d="M5.45563 17.4655L2.77552 16.1809C2.64923 16.1217 2.56504 15.9981 2.53698 15.8549C2.51359 15.7116 2.55569 15.5683 2.65391 15.4646L3.27132 14.8124L3.276 14.8075L2.35924 14.6889C2.22828 14.6691 2.10199 14.7185 2.00844 14.8124L1.39571 15.4646C1.29749 15.5683 1.25539 15.7116 1.27878 15.8549C1.30217 15.9981 1.39104 16.1167 1.51732 16.1809L5.03467 17.9151V17.9102" fill="white"/>
      <path d="M10.3252 9.90633C8.98745 11.4774 7.762 13.1474 6.64881 14.9013L6.46171 15.0544V15.0594C7.4533 13.4784 9.02487 11.6701 10.4889 9.90139L10.4561 9.93598L1.25589 4.42226C1.14364 4.35309 1.07348 4.23452 1.05477 4.09618C1.04074 3.96278 1.08283 3.82445 1.17638 3.73058L3.45422 1.36897L2.78536 1.11205C2.63101 1.05277 2.45795 1.09229 2.34102 1.21581L0.540265 3.11794C0.44672 3.21181 0.404624 3.35015 0.418656 3.48355C0.432688 3.61694 0.507524 3.74046 0.619779 3.80963L10.2924 9.94092L10.3252 9.90633Z" fill="white"/>
      <path d="M5.42227 20.43C5.12293 20.4498 4.82826 20.3411 4.60842 20.1286C2.93396 18.355 9.0004 10.4796 12.6206 6.65559C17.2652 1.74955 20.9228 -0.241512 22.4102 1.3296C23.8976 2.90072 22.0126 6.76428 17.3681 11.6703C14.1688 15.0448 7.98543 20.43 5.42227 20.43ZM21.0725 1.68533C19.7114 1.68533 16.9939 3.29103 13.2146 7.28304C7.90591 12.8906 4.51956 18.7749 5.20244 19.5012C5.89 20.2225 11.4607 16.6504 16.7694 11.0429C21.4607 6.08742 22.6721 2.86119 21.8162 1.95212C21.6104 1.76438 21.3438 1.66556 21.0725 1.68533Z" fill="#2799CE"/>
      <path d="M14.1039 8.66614C13.9355 8.66614 13.7811 8.55744 13.7156 8.3944C13.6502 8.22642 13.6876 8.03868 13.8045 7.91022C17.9252 3.55753 20.1095 2.76209 20.6801 2.62375C20.8251 2.58423 20.9841 2.63363 21.087 2.75221C21.1899 2.87078 21.2273 3.03382 21.1806 3.18698C21.1338 3.34014 21.0169 3.45378 20.8672 3.48836C20.5024 3.57729 18.4631 4.24428 14.3985 8.53768C14.3237 8.61673 14.2161 8.66614 14.1039 8.66614Z" fill="#2799CE"/>
      <path d="M0.839487 3.43457L5.51674 6.39894L10.5121 9.56587L10.0817 10.3267L5.08644 7.15979L0.40918 4.19542L0.839487 3.43457Z" fill="white"/>
      <path d="M2.42039 4.95132C2.53732 4.73887 2.47652 4.47208 2.2754 4.34363L0.839485 3.43457L0.40918 4.19541L1.84977 5.10941C2.04153 5.22799 2.29878 5.16376 2.42039 4.95132Z" fill="#2799CE"/>
      <path d="M10.0772 10.3213L10.5075 9.56043L5.15199 6.16619C4.95554 6.03773 4.69361 6.1069 4.57668 6.31935C4.45975 6.52686 4.52055 6.80353 4.72168 6.92705L10.0772 10.3213Z" fill="#2799CE"/>
      <path d="M3.71602 5.25736C3.6178 5.19807 3.50554 5.17831 3.39797 5.20796L3.32313 5.2376C3.29975 5.25242 3.27168 5.26724 3.25297 5.28701C3.22959 5.30183 3.21088 5.32159 3.19217 5.34135C3.17346 5.36606 3.15475 5.38582 3.14072 5.41052C3.08459 5.51428 3.06588 5.63285 3.09395 5.74649C3.12669 5.88977 3.22491 6.00835 3.36055 6.05775C3.49151 6.10716 3.64118 6.08246 3.75344 5.98858C3.80021 5.954 3.83763 5.90953 3.86569 5.86012C3.92182 5.76131 3.94052 5.63779 3.91246 5.52416C3.87972 5.41546 3.81424 5.31665 3.71602 5.25736Z" fill="#2799CE"/>
      <path d="M14.3005 6.00287C14.249 6.00287 14.2022 5.99299 14.1555 5.97817L2.64467 1.52668L0.839238 3.43375C0.970202 3.5128 1.05439 3.66102 1.05439 3.82406C1.05439 3.9871 0.970202 4.13532 0.83456 4.20943C0.698919 4.28848 0.539892 4.2786 0.408928 4.19461C0.189095 4.05627 0.0394223 3.81418 0.00668127 3.54245C-0.0260597 3.27071 0.0628086 2.99898 0.245223 2.8063L2.05065 0.899223C2.27984 0.662074 2.62128 0.578084 2.92531 0.691718L14.4455 5.1432C14.6372 5.21731 14.7495 5.42482 14.7167 5.63726C14.6793 5.84971 14.5063 6.00287 14.3005 6.00287Z" fill="#2799CE"/>
      <path d="M11.2226 4.8125C11.0543 4.8125 10.8999 4.70381 10.8344 4.54077C10.7689 4.37279 10.8064 4.18505 10.9233 4.05659L11.7325 3.20681C11.8962 3.03389 11.8962 2.75228 11.7325 2.57935C11.6529 2.50031 11.55 2.45584 11.4425 2.4509C11.3302 2.44596 11.218 2.49042 11.1384 2.57935L9.78204 4.01212C9.61834 4.1801 9.35641 4.1801 9.1927 4.00718C9.029 3.83426 9.029 3.55759 9.18803 3.38467L10.5444 1.9519C10.783 1.69993 11.1057 1.56159 11.4378 1.56653C11.7699 1.56159 12.0879 1.69993 12.3218 1.9519C12.8129 2.47066 12.8129 3.31056 12.3218 3.82932L11.5173 4.6791C11.4425 4.76803 11.3349 4.8125 11.2226 4.8125Z" fill="#2799CE"/>
      <path d="M7.74706 3.47375C7.57868 3.47375 7.42433 3.36506 7.35885 3.20202C7.29337 3.03404 7.33078 2.84629 7.44772 2.71784L8.46737 1.64077C8.63107 1.46785 8.63107 1.18624 8.46737 1.01331C8.38785 0.934262 8.28495 0.889796 8.17737 0.884856C8.06512 0.879915 7.95286 0.929321 7.87335 1.01331L6.30646 2.67337C6.14275 2.84135 5.88082 2.84135 5.71712 2.66843C5.55341 2.49551 5.55341 2.21883 5.71244 2.04591L7.28401 0.38585C7.51788 0.133877 7.84529 -0.00940167 8.17737 0.00047963C8.50946 0.00047963 8.82752 0.138818 9.06138 0.38585C9.5525 0.904618 9.5525 1.74453 9.06138 2.26824L8.04173 3.3453C7.96222 3.42435 7.85932 3.47375 7.74706 3.47375Z" fill="#2799CE"/>
      <path d="M20.4189 24.9999C20.3815 24.9999 20.3487 24.9999 20.3113 24.995C20.054 24.9604 19.8295 24.8073 19.6986 24.5701L13.8987 14.3578C13.8192 14.2244 13.8192 14.0515 13.8894 13.9132C13.9642 13.7749 14.0999 13.6859 14.2495 13.6859C14.3992 13.681 14.5395 13.765 14.6144 13.9033L20.4189 24.1205L22.2196 22.2134L18.0101 10.0496C17.9539 9.9014 17.982 9.73342 18.0802 9.60991C18.1785 9.48639 18.3281 9.4271 18.4778 9.45675C18.6275 9.48639 18.7491 9.59509 18.8005 9.74825L23.0101 21.9121C23.1177 22.2381 23.0428 22.5988 22.8136 22.8458L21.0129 24.7529C20.8539 24.9061 20.6387 24.9999 20.4189 24.9999Z" fill="#2799CE"/>
      <path d="M20.1665 15.4255C19.9981 15.4255 19.8437 15.3168 19.7782 15.1537C19.7128 14.9858 19.7502 14.798 19.8671 14.6696L21.2235 13.2368C21.303 13.1577 21.3451 13.0441 21.3451 12.9305C21.3498 12.8119 21.303 12.6933 21.2235 12.6093C21.0598 12.4364 20.7932 12.4364 20.6295 12.6093L19.825 13.4591C19.6613 13.6271 19.3994 13.6271 19.2357 13.4542C19.072 13.2812 19.072 13.0046 19.231 12.8316L20.0355 11.9818C20.5266 11.4631 21.3218 11.4631 21.8175 11.9818C22.304 12.5006 22.304 13.3405 21.8175 13.8642L20.4611 15.297C20.3816 15.3761 20.274 15.4255 20.1665 15.4255Z" fill="#2799CE"/>
      <path d="M21.4329 19.0959C21.2645 19.0959 21.1101 18.9873 21.0446 18.8242C20.9792 18.6562 21.0166 18.4685 21.1335 18.34L22.7004 16.68C22.7799 16.6009 22.822 16.4873 22.822 16.3736C22.8267 16.2551 22.7799 16.1365 22.7004 16.0525C22.532 15.8845 22.2748 15.8845 22.1064 16.0525L21.0867 17.1296C20.923 17.2975 20.6611 17.2975 20.4974 17.1246C20.3337 16.9517 20.3337 16.675 20.4927 16.5021L21.5124 15.425C22.0128 14.926 22.7939 14.926 23.2897 15.425C23.7762 15.9438 23.7762 16.7837 23.2897 17.3074L21.7228 18.9675C21.6527 19.0465 21.5451 19.0959 21.4329 19.0959Z" fill="#2799CE"/>
      <path d="M5.10943 18.1819C5.04862 18.1819 4.98782 18.1671 4.93169 18.1424L1.41436 16.4082C1.16647 16.2847 0.98873 16.0426 0.941957 15.761C0.895184 15.4744 0.984053 15.183 1.17582 14.9804L1.7979 14.3282C1.98032 14.1306 2.24225 14.0367 2.4995 14.0763L6.60148 14.6197C6.83067 14.6543 6.9897 14.8717 6.96164 15.1138C6.93357 15.3559 6.72777 15.5239 6.49858 15.4992L2.39192 14.9557L1.77452 15.6078L5.28716 17.342C5.4649 17.4309 5.56312 17.6384 5.52103 17.841C5.47893 18.0435 5.30587 18.1819 5.10943 18.1819Z" fill="#2799CE"/>
      <path d="M8.88848 24.0115C8.83703 24.0115 8.79026 24.0065 8.74348 23.9967C8.4722 23.9472 8.24769 23.7595 8.13076 23.4977L6.48902 19.7873C6.42354 19.644 6.43757 19.476 6.52644 19.3475C6.61063 19.2191 6.75563 19.145 6.9053 19.1598C7.05497 19.1746 7.18594 19.2685 7.25142 19.4118L8.89316 23.1271L9.51056 22.4749L8.99606 18.1322C8.97267 17.8901 9.1317 17.6727 9.36089 17.643C9.59008 17.6134 9.79588 17.7814 9.82862 18.0235L10.3431 22.3613C10.3759 22.633 10.2917 22.9048 10.1046 23.0975L9.48717 23.7546C9.32815 23.9176 9.11299 24.0115 8.88848 24.0115Z" fill="#2799CE"/>
      <path d="M11.5131 8.95319C11.443 8.95319 11.3728 8.93342 11.312 8.89884L4.4083 4.84752C4.27266 4.77341 4.18847 4.62519 4.18379 4.46709C4.17911 4.30405 4.25863 4.15583 4.38959 4.07678C4.52056 3.99773 4.68426 3.99279 4.81523 4.07678L11.7143 8.12316C11.8826 8.22197 11.9668 8.42454 11.9154 8.62216C11.8686 8.81485 11.7002 8.95319 11.5131 8.95319Z" fill="#2799CE"/>
      <path d="M19.445 20.5735C19.2907 20.5735 19.1503 20.4846 19.0802 20.3462L15.2495 13.0588C15.1747 12.9205 15.1747 12.7475 15.2495 12.6092C15.3243 12.4709 15.4693 12.3869 15.619 12.3918C15.7687 12.3967 15.909 12.4857 15.9791 12.629L19.8098 19.9114C19.88 20.0498 19.88 20.2178 19.8052 20.3512C19.7303 20.4895 19.59 20.5735 19.445 20.5735Z" fill="#2799CE"/>
  </symbol>
  <symbol viewBox="0 0 16 16" id="cross2">
    <rect xmlns="http://www.w3.org/2000/svg" width="20" height="2" transform="matrix(-0.707107 -0.707107 -0.707107 0.707107 15.7783 14.1426)"
    />
    <rect xmlns="http://www.w3.org/2000/svg" width="20" height="2" transform="matrix(-0.707107 0.707107 0.707107 0.707107 14.3643 0)"
    />
  </symbol>
	<use xlink:href="#vk" width="99" height="99" x="00" y="0"/>
	<use xlink:href="#odn" width="99" height="99" x="100" y="0"/>
	<use xlink:href="#inst" width="99" height="99" x="200" y="0"/>
	<use xlink:href="#user" width="100%" height="100%" x="300" y="0"/>
	<use xlink:href="#gramm" width="40" height="40" x="400" y="0"/>
	<use xlink:href="#cart" width="100%" height="100%" x="600" y="0"/>
	<use xlink:href="#compare" width="40" height="40" x="800" y="0"/>
	<use xlink:href="#msg" width="40" height="40" x="900" y="0"/>
	<use xlink:href="#arrow-r" width="40" height="40" x="1000" y="0"/>
	<use xlink:href="#arrow-l" width="40" height="40" x="1100" y="0"/>
	<use xlink:href="#coupon" width="40" height="40" x="1200" y="0"/>
	<use xlink:href="#collection" width="40" height="40" x="1300" y="0"/>
	<use xlink:href="#add-collection" width="40" height="40" x="1400" y="0"/>
	<use xlink:href="#sail" width="40" height="40" x="1500" y="0"/>
	<use xlink:href="#list" width="40" height="40" x="1600" y="0"/>
	<use xlink:href="#phone" width="17" height="17" x="1700" y="0"/>
	<use xlink:href="#mark" width="10" height="15" x="1800" y="0"/>
	<use xlink:href="#arrow-btn" width="8" height="8" x="1850" y="0"/>
  <use xlink:href="#search" width="15" height="15" x="1880" y="0"/>
  <use xlink:href="#heart" width="23" height="20" x="1900" y="0"/>
  <use xlink:href="#logout" width="22" height="17" x="1930" y="0"/>
  <use xlink:href="#cross" width="10" height="10" x="1960" y="0"/>
  <use xlink:href="#tricycle" width="32" height="25" x="2000" y="0"/>
  <use xlink:href="#airplane" width="24" height="25" x="2060" y="0"/>
  <use xlink:href="#cross2" width="16" height="16" x="2090" y="0"/>
</svg>
