<svg xmlns="http://www.w3.org/2000/svg" xmlns:xlink="http://www.w3.org/1999/xlink">
	<symbol viewBox="0 0 99.04 99.04" id="vk">
		<path class="cls-1" d="M49.52,0a49.51,49.51,0,1,1-35,14.5A49.34,49.34,0,0,1,49.52,0ZM81.79,17.25A45.64,45.64,0,1,0,95.17,49.52,45.47,45.47,0,0,0,81.79,17.25Z"/>
		<path class="cls-2" d="M76.91,35.73c-.74-.55-3.4-.55-6-.55a37.37,37.37,0,0,0-6,.3C64.3,35.7,63,38.83,61.34,42c-1.93,3.62-4.25,7.13-5.74,7.08-1.94,0-1.48-6-1.34-10.37,0-2.88-.44-3.81-.85-4.05a16,16,0,0,0-3.81-1.4s-8.39-.63-9.57,3c1.62.22,4.36-.28,3.29,10.93-.08.55-1.29,5.16-5.18-1.07-1-1.56-4.72-10.91-6-11-4.31-.08-8.58-.28-10.06.55S23.91,43,29.42,51.58c4.47,7.07,9.21,12.55,17.44,13.92,1.56.17,5.56.33,6.85-.27.85-.41-.22-6.5,2.72-7.1,1.29-.25,6.3,6.36,8.19,7.1a18.39,18.39,0,0,0,6.26.55c2.79-.08,6,.27,6.27-1.65.69-4.19-8.47-9.68-8.71-12.25-.22-1.87,3.34-5.3,5.15-7.93,2.25-3.18,4.72-7,3.32-8.22Z"/>
	</symbol>

	<symbol viewBox="0 0 99.04 99.04" id="odn">
		<path class="cls-1" d="M49.52,0a49.51,49.51,0,1,1-35,14.5A49.34,49.34,0,0,1,49.52,0Zm32.3,17.25A45.71,45.71,0,1,0,95.17,49.52,45.59,45.59,0,0,0,81.82,17.25Z"/>
		<path class="cls-1" d="M38,79l-.6-.17A4.09,4.09,0,0,1,34.55,75a3.47,3.47,0,0,1,1-2.24Q41,67.33,46.44,61.86c.08-.07.14-.15.25-.27-.29-.05-.52-.09-.76-.11a28.69,28.69,0,0,1-7.12-1.72,18.16,18.16,0,0,1-4.06-2.32,19.85,19.85,0,0,1-2-1.72,2.73,2.73,0,0,1-.89-2.12,3.88,3.88,0,0,1,2.87-3.77,3.82,3.82,0,0,1,2.8.52c.69.41,1.33.9,2,1.34a15.3,15.3,0,0,0,4.36,1.86,22.54,22.54,0,0,0,5.59.81,18.76,18.76,0,0,0,2.7-.2,21,21,0,0,0,5.39-1.41,16.48,16.48,0,0,0,3.38-2,4.55,4.55,0,0,1,2.58-1,3.25,3.25,0,0,1,3.05,1.65,4.34,4.34,0,0,1,.68,1.94,3.07,3.07,0,0,1-.91,2.4,15.4,15.4,0,0,1-2.72,2.18,20.45,20.45,0,0,1-8.23,3.19c-1,.17-1.91.3-2.91.46a2.33,2.33,0,0,0,.19.23L63.2,72.39a4.19,4.19,0,0,1,1.2,1.73,3.42,3.42,0,0,1-.88,3.55A3.81,3.81,0,0,1,61.28,79a.51.51,0,0,0-.15.07h-.69c-.09,0-.18-.07-.27-.09a3.22,3.22,0,0,1-1.68-.83c-.25-.24-.5-.48-.74-.73l-8-8c-.14-.15-.24-.17-.4,0-2.69,2.7-5.39,5.39-8.07,8.1A4.34,4.34,0,0,1,38.77,79s-.05,0-.07,0Z"/>
		<path class="cls-1" d="M49.52,20a14.91,14.91,0,1,1-14.9,14.71A14.91,14.91,0,0,1,49.52,20ZM56.88,35a7.37,7.37,0,1,0-7.52,7.35A7.37,7.37,0,0,0,56.88,35Z"/>
	</symbol>

	<symbol viewBox="0 0 99.04 99.04" id="inst">
			<path class="cls-1" d="M49.52,0a49.51,49.51,0,1,1-35,14.5A49.31,49.31,0,0,1,49.52,0Zm32.3,17.25A45.71,45.71,0,1,0,95.17,49.52,45.59,45.59,0,0,0,81.82,17.25Z"/>
			<path class="cls-2" d="M36.85,49.52A12.68,12.68,0,1,1,49.52,62.21,12.71,12.71,0,0,1,36.85,49.52ZM62.62,24.7H36.44A11.78,11.78,0,0,0,24.7,36.44V62.62A11.79,11.79,0,0,0,36.44,74.36H62.62A11.76,11.76,0,0,0,74.36,62.62V36.44A11.75,11.75,0,0,0,62.62,24.7ZM36.44,27.64H62.62a8.82,8.82,0,0,1,8.81,8.8V62.62a8.81,8.81,0,0,1-8.81,8.8H36.44a8.81,8.81,0,0,1-8.8-8.8V36.44a8.81,8.81,0,0,1,8.8-8.8Zm28.79,3.7a2.58,2.58,0,1,0,2.58,2.58,2.57,2.57,0,0,0-2.58-2.58Zm.3,18.18a16,16,0,1,0-16,16,16,16,0,0,0,16-16Z"/>
	</symbol>

	<symbol viewBox="12 12 16 16" id="gramm">
		<path d="M20.9,28.5c-0.8,0-1.5-0.6-1.7-1.4l-0.8-4.9c0-0.3-0.3-0.5-0.6-0.6l-4.9-0.8c-0.8-0.1-1.3-0.7-1.4-1.5      c-0.1-0.8,0.3-1.5,1.1-1.7l12.6-4.9c0.7-0.3,1.6,0,2,0.6c0.3,0.5,0.4,1,0.2,1.6l-4.9,12.6C22.2,28.1,21.6,28.5,20.9,28.5z       M25.8,13.5c-0.1,0-0.2,0-0.3,0l-12.6,4.9c-0.4,0.1-0.5,0.5-0.4,0.7c0,0.2,0.2,0.5,0.6,0.6l4.9,0.8c0.7,0.1,1.3,0.7,1.4,1.4      l0.8,4.9c0.1,0.4,0.4,0.6,0.7,0.6c0.1,0,0.5,0,0.6-0.4l4.9-12.6c0.1-0.3,0-0.5-0.1-0.6C26.3,13.6,26,13.5,25.8,13.5z"/>
		<path d="M18.2,21.1l7.6-7.6c0.2-0.2,0.5-0.2,0.7,0s0.2,0.5,0,0.7l-7.6,7.6L18.2,21.1z"/>
	</symbol>

	<symbol viewBox="12 12 14 14" id="search">
		<path d="M18.5,24c-3,0-5.5-2.5-5.5-5.5s2.5-5.5,5.5-5.5s5.5,2.5,5.5,5.5S21.5,24,18.5,24z M18.5,14     C16,14,14,16,14,18.5s2,4.5,4.5,4.5s4.5-2,4.5-4.5S21,14,18.5,14z"/>
		<path d="M22.5,21.8l4.4,4.4c0.2,0.2,0.2,0.5,0,0.7C26.8,27,26.6,27,26.5,27s-0.3,0-0.4-0.1l-4.4-4.4L22.5,21.8z"/>
	</symbol>

	<symbol viewBox="12 12 16 16" id="star">
		<path d="M23.7,27.2c-0.2,0-0.5-0.1-0.7-0.2l-2.8-1.4c-0.1-0.1-0.3-0.1-0.4,0L17,27c-0.6,0.3-1.4,0.1-1.8-0.4    c-0.3-0.3-0.4-0.8-0.3-1.2l0.4-3.1c0-0.2,0-0.3-0.1-0.4L13,19.7c-0.4-0.4-0.5-1-0.4-1.5c0.2-0.5,0.6-0.9,1.2-1l3.1-0.5    c0.2,0,0.3-0.1,0.4-0.3l1.4-2.8c0.3-0.5,0.8-0.8,1.3-0.8s1.1,0.3,1.3,0.8l1.4,2.8c0.1,0.1,0.2,0.2,0.4,0.3l3.1,0.5    c0.6,0.1,1,0.5,1.2,1c0.2,0.5,0,1.1-0.4,1.5l-2.2,2.2c-0.1,0.1-0.2,0.3-0.1,0.4l0.5,3.1c0.1,0.4-0.1,0.9-0.3,1.2    C24.5,27,24.1,27.2,23.7,27.2z"/>
	</symbol>

	<symbol viewBox="12 13 16 16" id="msg">
		<path fill="#231815" d="M27,26.4c-0.4,0-0.7-0.1-1-0.4l-1.6-1.4H15c-1.9,0-3.5-1.6-3.5-3.5v-4c0-1.9,1.6-3.5,3.5-3.5h10      c1.9,0,3.5,1.6,3.5,3.5v7.8C28.5,25.7,27.8,26.4,27,26.4z M15,14.6c-1.4,0-2.5,1.1-2.5,2.5v4c0,1.4,1.1,2.5,2.5,2.5h9.6      c0.1,0,0.2,0,0.3,0.1l1.8,1.6c0.3,0.3,0.8,0.1,0.8-0.4v-7.8c0-1.4-1.1-2.5-2.5-2.5H15z"/>
	</symbol>

	<symbol viewBox="12 13 15 15" id="arrow-l">
		<path d="M22,26.5c-0.1,0-0.3,0-0.4-0.1l-4.6-4.6c-0.5-0.5-0.7-1.1-0.7-1.8s0.3-1.3,0.7-1.8l4.6-4.6   c0.2-0.2,0.5-0.2,0.7,0s0.2,0.5,0,0.7l-4.6,4.6c-0.6,0.6-0.6,1.5,0,2.1l4.6,4.6c0.2,0.2,0.2,0.5,0,0.7   C22.3,26.5,22.1,26.5,22,26.5z"></path>
	</symbol>

	<symbol viewBox="12 13 15 15" id="arrow-r">
		<path d="M18,26.5c-0.1,0-0.3,0-0.4-0.1c-0.2-0.2-0.2-0.5,0-0.7l4.6-4.6c0.6-0.6,0.6-1.5,0-2.1l-4.6-4.6   c-0.2-0.2-0.2-0.5,0-0.7s0.5-0.2,0.7,0l4.6,4.6c0.5,0.5,0.7,1.1,0.7,1.8s-0.3,1.3-0.7,1.8l-4.6,4.6C18.3,26.5,18.1,26.5,18,26.5z   "></path>
	</symbol>

	<symbol viewBox="12 13 15 15" id="compare">
		<path  d="M28,28.5H12c-0.3,0-0.5-0.2-0.5-0.5V12c0-0.3,0.2-0.5,0.5-0.5s0.5,0.2,0.5,0.5v15.5H28      c0.3,0,0.5,0.2,0.5,0.5S28.3,28.5,28,28.5z"/>
		<path  d="M12,22.5c-0.2,0-0.3-0.1-0.4-0.2c-0.2-0.2-0.1-0.5,0.1-0.7l3.9-2.9c0.2-0.1,0.4-0.1,0.6,0L20,21l6.6-6.2      c0.2-0.2,0.5-0.2,0.7,0s0.2,0.5,0,0.7L20.4,22c-0.2,0.2-0.4,0.2-0.6,0.1L16,19.8l-3.6,2.7C12.2,22.5,12.1,22.5,12,22.5z"/>
		<path  d="M16.4,28v-4.4h-1V28h-1v-4.9c0-0.3,0.2-0.5,0.5-0.5h2c0.3,0,0.5,0.2,0.5,0.5V28H16.4z"/>
		<path  d="M20.9,28v-2.7h-1V28h-1v-3.2c0-0.3,0.2-0.5,0.5-0.5h2c0.3,0,0.5,0.2,0.5,0.5V28H20.9z"/>
		<path  d="M25.4,28v-5.9h-1V28h-1v-6.4c0-0.3,0.2-0.5,0.5-0.5h2c0.3,0,0.5,0.2,0.5,0.5V28H25.4z"/>
	</symbol>

	<symbol viewBox="11.5 11.5 16.5 16.5" id="coupon">
		<path d="M19.6,28.5L19.6,28.5c-0.1,0-0.3-0.1-0.4-0.1c-0.8-0.8-2.2-0.8-2.9,0c-0.2,0.2-0.5,0.2-0.7,0l-4-4     c-0.2-0.2-0.2-0.5,0-0.7c0.8-0.8,0.8-2.1,0-2.9c-0.2-0.2-0.2-0.5,0-0.7l8.4-8.4c0.1-0.1,0.2-0.1,0.4-0.1l0,0     c0.1,0,0.3,0.1,0.4,0.1c0.8,0.8,2.1,0.8,2.9,0c0.2-0.2,0.5-0.2,0.7,0l4,4c0.2,0.2,0.2,0.5,0,0.7c-0.8,0.8-0.8,2.1,0,2.9     c0.2,0.2,0.2,0.5,0,0.7L20,28.4C19.9,28.4,19.7,28.5,19.6,28.5z M12.7,24l3.3,3.3c1-0.7,2.5-0.7,3.6,0l7.7-7.7     c-0.8-1.1-0.8-2.5,0-3.6L24,12.7c-1,0.7-2.5,0.7-3.6,0l-7.7,7.7C13.4,21.5,13.4,22.9,12.7,24z"/>
		<path d="M21,23.3c-0.2,0-0.4-0.1-0.5-0.4l-1.7-5.9c-0.1-0.3,0.1-0.5,0.3-0.6c0.3-0.1,0.5,0.1,0.6,0.3l1.7,5.9      c0.1,0.3-0.1,0.5-0.3,0.6C21.1,23.3,21.1,23.3,21,23.3z"/>
		<path d="M23,20.9c-0.6,0-1-0.4-1-1s0.4-1,1-1c0.6,0,1,0.4,1,1S23.6,20.9,23,20.9z"/>
		<path d="M17.4,20.8c-0.6,0-1-0.4-1-1s0.4-1,1-1c0.6,0,1,0.4,1,1S17.9,20.8,17.4,20.8z"/>
	</symbol>

	<symbol viewBox="11.5 11.5 16.5 16.5" id="collection">
		<path d="M26.5,27h-13c-0.8,0-1.5-0.7-1.5-1.5v-11c0-0.8,0.7-1.5,1.5-1.5h4c0.8,0,1.5,0.7,1.5,1.5v1c0,0.3,0.2,0.5,0.5,0.5h7     c0.8,0,1.5,0.7,1.5,1.5v8C28,26.3,27.3,27,26.5,27z M13.5,14c-0.3,0-0.5,0.2-0.5,0.5v11c0,0.3,0.2,0.5,0.5,0.5h13     c0.3,0,0.5-0.2,0.5-0.5v-8c0-0.3-0.2-0.5-0.5-0.5h-7c-0.8,0-1.5-0.7-1.5-1.5v-1c0-0.3-0.2-0.5-0.5-0.5H13.5z"/>
		<path d="M21.2,24.4c-0.1,0-0.3,0-0.4-0.1L20,23.9l-0.9,0.4c-0.3,0.2-0.8,0.1-1-0.2c-0.2-0.2-0.2-0.4-0.2-0.7l0.1-1l-0.7-0.7     c-0.2-0.2-0.3-0.5-0.2-0.8c0.1-0.3,0.3-0.5,0.7-0.6l1-0.2l0.5-0.9c0.3-0.6,1.2-0.6,1.5,0l0.5,0.9l1,0.2c0.3,0.1,0.6,0.3,0.7,0.6     c0.1,0.3,0,0.6-0.2,0.8l-0.7,0.7l0.1,1c0,0.2,0,0.5-0.2,0.7C21.7,24.3,21.5,24.4,21.2,24.4z M18.3,21.3l0.5,0.5     c0.2,0.2,0.3,0.5,0.2,0.7L19,23.3l0.7-0.3c0.2-0.1,0.5-0.1,0.7,0l0.7,0.3l-0.1-0.7c0-0.3,0-0.5,0.2-0.7l0.5-0.5l-0.7-0.1     c-0.3,0-0.5-0.2-0.6-0.4L20,20.1l-0.3,0.7c-0.1,0.2-0.3,0.4-0.6,0.4L18.3,21.3z"/>

	</symbol>

	<symbol viewBox="11.5 11.5 16.5 16.5" id="add-collection">
		<path d="M26.5,27h-13c-0.8,0-1.5-0.7-1.5-1.5v-11c0-0.8,0.7-1.5,1.5-1.5h4c0.8,0,1.5,0.7,1.5,1.5v1c0,0.3,0.2,0.5,0.5,0.5h7    c0.8,0,1.5,0.7,1.5,1.5v8C28,26.3,27.3,27,26.5,27z M13.5,14c-0.3,0-0.5,0.2-0.5,0.5v11c0,0.3,0.2,0.5,0.5,0.5h13    c0.3,0,0.5-0.2,0.5-0.5v-8c0-0.3-0.2-0.5-0.5-0.5h-7c-0.8,0-1.5-0.7-1.5-1.5v-1c0-0.3-0.2-0.5-0.5-0.5H13.5z"/>
		<path d="M22,22.2h-4c-0.3,0-0.5-0.2-0.5-0.5s0.2-0.5,0.5-0.5h4c0.3,0,0.5,0.2,0.5,0.5S22.3,22.2,22,22.2z"/>
		<path d="M20,24.2c-0.3,0-0.5-0.2-0.5-0.5v-4c0-0.3,0.2-0.5,0.5-0.5s0.5,0.2,0.5,0.5v4C20.5,24,20.3,24.2,20,24.2z"/>

	</symbol>

	<symbol viewBox="11.5 11.5 16.5 16.5" id="sail">
		<path d="M17.7,29.5c-0.3,0-0.6-0.1-0.8-0.3l-6-6c-0.2-0.2-0.3-0.5-0.3-0.8s0.1-0.6,0.3-0.8l8.7-8.7c0.2-0.2,0.5-0.3,0.8-0.3h6      c0.6,0,1.1,0.5,1.1,1.1v6c0,0.3-0.1,0.6-0.3,0.8l-8.7,8.7C18.2,29.4,17.9,29.5,17.7,29.5z M20.3,13.5l-8.8,8.8c0,0,0,0.1,0,0.2      l6.1,6.1c0,0,0.1,0,0.1,0l8.7-8.7l0-6.1c0-0.1,0-0.1-0.1-0.1H20.3z"/>
		<path d="M23.5,17.5c-0.3,0-0.5-0.1-0.7-0.3c-0.4-0.4-0.4-1,0-1.4c0.4-0.4,1-0.4,1.4,0c0.4,0.4,0.4,1,0,1.4      C24,17.4,23.8,17.5,23.5,17.5z"/>
	</symbol>

	<symbol viewBox="11.5 11.5 16.5 16.5" id="list">
		<path d="M25.6,15.5h-6.8c-0.3,0-0.5-0.2-0.5-0.5s0.2-0.5,0.5-0.5h6.8c0.3,0,0.5,0.2,0.5,0.5       S25.9,15.5,25.6,15.5z"/>
		<path d="M25.6,20.5h-6.8c-0.3,0-0.5-0.2-0.5-0.5s0.2-0.5,0.5-0.5h6.8c0.3,0,0.5,0.2,0.5,0.5       S25.9,20.5,25.6,20.5z"/>
		<path d="M25.6,25.5h-6.8c-0.3,0-0.5-0.2-0.5-0.5s0.2-0.5,0.5-0.5h6.8c0.3,0,0.5,0.2,0.5,0.5       S25.9,25.5,25.6,25.5z"/>
		<path d="M15,16c-0.2,0-0.4-0.1-0.6-0.2L14,15.4c-0.2-0.2-0.2-0.5,0-0.7s0.5-0.2,0.7,0l0.2,0.2l0.7-0.8      c0.2-0.2,0.5-0.2,0.7,0c0.2,0.2,0.2,0.5,0,0.7l-0.9,0.9C15.4,15.9,15.2,16,15,16C15,16,15,16,15,16z"/>
		<path d="M15,21c-0.2,0-0.4-0.1-0.6-0.2L14,20.4c-0.2-0.2-0.2-0.5,0-0.7s0.5-0.2,0.7,0l0.2,0.2l0.7-0.8      c0.2-0.2,0.5-0.2,0.7,0c0.2,0.2,0.2,0.5,0,0.7l-0.9,0.9C15.4,20.9,15.2,21,15,21C15,21,15,21,15,21z"/>
		<path d="M15,26c-0.2,0-0.4-0.1-0.6-0.2L14,25.4c-0.2-0.2-0.2-0.5,0-0.7s0.5-0.2,0.7,0l0.2,0.2l0.7-0.8      c0.2-0.2,0.5-0.2,0.7,0c0.2,0.2,0.2,0.5,0,0.7l-0.9,0.9C15.4,25.9,15.2,26,15,26C15,26,15,26,15,26z"/>
	</symbol>

	<symbol viewBox="0 0 17 17" id="phone">
		<path d="M3.37,11.09A17.55,17.55,0,0,0,9.26,15.7a9,9,0,0,0,3.29,1h.24a2.72,2.72,0,0,0,2.11-.91l0,0c.2-.24.43-.46.66-.69l.49-.49a1.66,1.66,0,0,0,0-2.48L14,10a1.69,1.69,0,0,0-1.22-.56,1.71,1.71,0,0,0-1.23.56L10.3,11.25,10,11.07a2.69,2.69,0,0,1-.38-.2A13.17,13.17,0,0,1,6.45,8,7.32,7.32,0,0,1,5.39,6.33c.33-.29.63-.6.92-.9l.32-.32a1.78,1.78,0,0,0,.58-1.25,1.74,1.74,0,0,0-.58-1.24l-1-1-.35-.36C5,1,4.78.75,4.55.53A1.74,1.74,0,0,0,3.33,0,1.75,1.75,0,0,0,2.1.54L.81,1.83A2.69,2.69,0,0,0,0,3.53,6.45,6.45,0,0,0,.5,6.3,15.9,15.9,0,0,0,3.37,11.09ZM.86,3.6a1.81,1.81,0,0,1,.55-1.17L2.69,1.14A1,1,0,0,1,3.33.85a.87.87,0,0,1,.62.3c.23.21.45.44.69.68L5,2.19l1,1a1,1,0,0,1,.32.65A1,1,0,0,1,6,4.52l-.32.32c-.33.33-.63.63-1,.93h0a.69.69,0,0,0-.17.77v0a8.08,8.08,0,0,0,1.22,2,13.66,13.66,0,0,0,3.33,3c.15.1.31.17.45.25a2.7,2.7,0,0,1,.38.21l0,0a.71.71,0,0,0,.85-.15l1.3-1.3a.89.89,0,0,1,.63-.3.87.87,0,0,1,.61.3l2.09,2.09a.83.83,0,0,1,0,1.3l-.46.46a8.65,8.65,0,0,0-.73.75,1.88,1.88,0,0,1-1.48.63h-.18a8.22,8.22,0,0,1-3-.89A16.78,16.78,0,0,1,4,10.56,15.53,15.53,0,0,1,1.29,6,5.57,5.57,0,0,1,.86,3.6Z"></path>
	</symbol>

  <symbol viewBox="0 0 10 15" id="mark">
    <path xmlns="http://www.w3.org/2000/svg" d="M5.21212 14.8745C7.18182 12.6778 10 8.28452 10 5.17782C10 2.32218 7.75758 0 5 0C2.24242 0 0 2.32218 0 5.17782C0 8.41004 2.87879 12.5523 4.90909 14.8745C5.06061 15.0628 5.06061 15.0628 5.21212 14.8745ZM5 8.03347C3.48485 8.03347 2.24242 6.74686 2.24242 5.17782C2.24242 3.60879 3.48485 2.32218 5 2.32218C6.51515 2.32218 7.75758 3.60879 7.75758 5.17782C7.75758 6.74686 6.51515 8.03347 5 8.03347Z" fill="#2799CE"/>
  </symbol>
  <symbol viewBox="0 0 8 8" id="arrow-btn">
    <path xmlns="http://www.w3.org/2000/svg" d="M2.6 0.544L3.528 3.36L4.28 5.52L4.344 5.52L5.096 3.36L6.024 0.544L7.96 0.544L5.128 7.904L3.496 7.904L0.664 0.543999L2.6 0.544Z" fill="black"/>
  </symbol>
  <symbol viewBox="0 0 15 15" id="search">
    <path xmlns="http://www.w3.org/2000/svg" d="M14.4604 13.5971L11.0072 10.1439C11.8705 9.06475 12.4101 7.71583 12.4101 6.20504C12.4101 2.80576 9.60432 0 6.20504 0C2.80576 0 0 2.80576 0 6.20504C0 9.60432 2.80576 12.4101 6.20504 12.4101C7.55396 12.4101 8.79496 11.9784 9.82014 11.277L13.3273 14.7842C13.4892 14.946 13.705 15 13.9209 15C14.1367 15 14.3525 14.946 14.5144 14.7842C14.7842 14.4604 14.7842 13.9209 14.4604 13.5971ZM1.61871 6.20504C1.61871 3.66906 3.66906 1.61871 6.20504 1.61871C8.74101 1.61871 10.7914 3.66906 10.7914 6.20504C10.7914 8.74101 8.74101 10.7914 6.20504 10.7914C3.66906 10.7914 1.61871 8.74101 1.61871 6.20504Z"/>
  </symbol>
  <symbol viewBox="0 0 19 20" id="user">
    <path xmlns="http://www.w3.org/2000/svg" d="M14.4604 13.5971L11.0072 10.1439C11.8705 9.06475 12.4101 7.71583 12.4101 6.20504C12.4101 2.80576 9.60432 0 6.20504 0C2.80576 0 0 2.80576 0 6.20504C0 9.60432 2.80576 12.4101 6.20504 12.4101C7.55396 12.4101 8.79496 11.9784 9.82014 11.277L13.3273 14.7842C13.4892 14.946 13.705 15 13.9209 15C14.1367 15 14.3525 14.946 14.5144 14.7842C14.7842 14.4604 14.7842 13.9209 14.4604 13.5971ZM1.61871 6.20504C1.61871 3.66906 3.66906 1.61871 6.20504 1.61871C8.74101 1.61871 10.7914 3.66906 10.7914 6.20504C10.7914 8.74101 8.74101 10.7914 6.20504 10.7914C3.66906 10.7914 1.61871 8.74101 1.61871 6.20504Z"/>
    <path xmlns="http://www.w3.org/2000/svg" d="M18.0822 20.0001H16.4384C16.4384 15.9453 13.0959 12.6028 9.0411 12.6028C4.9863 12.6028 1.64384 15.9453 1.64384 20.0001H0C0 15.0138 4.05479 10.959 9.0411 10.959C14.0274 10.959 18.0822 15.0138 18.0822 20.0001Z"/>
  </symbol>
  <symbol viewBox="0 0 23 20" id="heart">
  <path xmlns="http://www.w3.org/2000/svg" d="M20.3038 2.71401C19.2041 1.61437 17.7483 1.01336 16.1946 1.01336C14.6409 1.01336 13.1806 1.61882 12.081 2.71846L11.5067 3.29276L10.9235 2.70956C9.82383 1.60992 8.35913 1 6.8054 1C5.25611 1 3.79586 1.60547 2.70068 2.70065C1.60104 3.80029 0.995572 5.26054 1.00002 6.81427C1.00002 8.36801 1.60994 9.82381 2.70958 10.9234L11.0704 19.2842C11.1861 19.4 11.342 19.4623 11.4933 19.4623C11.6447 19.4623 11.8005 19.4044 11.9163 19.2887L20.2949 10.9412C21.3945 9.84161 22 8.38137 22 6.82763C22.0044 5.27389 21.4034 3.81365 20.3038 2.71401ZM19.449 10.0909L11.4933 18.0154L3.55546 10.0776C2.68287 9.20498 2.20206 8.04747 2.20206 6.81427C2.20206 5.58108 2.67842 4.42357 3.551 3.55543C4.41914 2.6873 5.57665 2.20648 6.8054 2.20648C8.03859 2.20648 9.20056 2.6873 10.0731 3.55988L11.0793 4.56603C11.3152 4.80198 11.6937 4.80198 11.9296 4.56603L12.9269 3.56879C13.7994 2.6962 14.9614 2.21539 16.1902 2.21539C17.4189 2.21539 18.5764 2.6962 19.449 3.56434C20.3216 4.43692 20.7979 5.59443 20.7979 6.82763C20.8024 8.06083 20.3216 9.21834 19.449 10.0909Z"  stroke-width="0.4"/>
</symbol>
  <symbol viewBox="0 0 20 20" id="cart">
    <path xmlns="http://www.w3.org/2000/svg" d="M15.8365 14.165C14.4615 14.165 13.3428 15.2838 13.3428 16.6588C13.3428 18.0338 14.4615 19.1526 15.8365 19.1526C17.2116 19.1526 18.3303 18.0338 18.3303 16.6588C18.3303 15.2838 17.2116 14.165 15.8365 14.165ZM15.8365 17.6563C15.2864 17.6563 14.839 17.2089 14.839 16.6588C14.839 16.1087 15.2864 15.6613 15.8365 15.6613C16.3867 15.6613 16.834 16.1087 16.834 16.6588C16.834 17.2089 16.3867 17.6563 15.8365 17.6563Z" />
    <path xmlns="http://www.w3.org/2000/svg" d="M19.841 4.52619C19.6994 4.3449 19.4821 4.23916 19.252 4.23916H4.618L3.94467 1.42196C3.86412 1.08531 3.56311 0.847656 3.21697 0.847656H0.748129C0.334924 0.847617 0 1.18254 0 1.59575C0 2.00895 0.334924 2.34388 0.748129 2.34388H2.62646L5.05788 12.5175C5.13843 12.8544 5.43945 13.0918 5.78558 13.0918H17.4315C17.7755 13.0918 18.0752 12.8574 18.1577 12.5237L19.9782 5.16706C20.0333 4.94366 19.9827 4.70748 19.841 4.52619ZM16.8462 11.5956H6.37609L4.97558 5.73542H18.2961L16.8462 11.5956Z" />
    <path xmlns="http://www.w3.org/2000/svg" d="M6.78283 14.165C5.40774 14.165 4.28906 15.2838 4.28906 16.6588C4.28906 18.0338 5.40778 19.1526 6.78283 19.1526C8.15787 19.1526 9.27659 18.0338 9.27659 16.6588C9.27659 15.2838 8.15787 14.165 6.78283 14.165ZM6.78283 17.6563C6.23271 17.6563 5.78532 17.2089 5.78532 16.6588C5.78532 16.1087 6.23271 15.6613 6.78283 15.6613C7.33295 15.6613 7.78033 16.1087 7.78033 16.6588C7.78033 17.2089 7.33295 17.6563 6.78283 17.6563Z" />
  </symbol>
  <symbol viewBox="0 0 22 17" id="logout">
    <path xmlns="http://www.w3.org/2000/svg" d="M17.4522 12.2906L16.8877 11.7261L20.1135 8.50028L16.8877 5.27448L17.4522 4.70996L21.2425 8.50028L17.4522 12.2906Z" stroke-width="0.3"/>

    <path xmlns="http://www.w3.org/2000/svg" d="M20.759 8.09668H8.50098V8.90313H20.759V8.09668Z"  stroke-width="0.3"/>
    <path xmlns="http://www.w3.org/2000/svg" d="M13.3386 13.0966C12.1289 14.3869 10.4353 15.1934 8.49984 15.1934C4.79016 15.1934 1.80629 12.2095 1.80629 8.49984C1.80629 4.79016 4.79016 1.80629 8.49984 1.80629C10.4353 1.80629 12.1289 2.61275 13.3386 3.90307L13.8224 3.4192C12.4515 2.04823 10.5966 1.16113 8.49984 1.16113C4.46758 1.16113 1.16113 4.46758 1.16113 8.49984C1.16113 12.5321 4.46758 15.8386 8.49984 15.8386C10.5966 15.8386 12.4515 14.9515 13.8224 13.5805L13.3386 13.0966Z" stroke-width="0.3"/>
    <path xmlns="http://www.w3.org/2000/svg" d="M8.5 16C4.3871 16 1 12.6129 1 8.5C1 4.3871 4.3871 1 8.5 1C10.5161 1 12.4516 1.80645 13.9032 3.33871L13.9839 3.41935L13.4194 3.98387L13.3387 3.90323C12.0484 2.6129 10.3548 1.80645 8.58064 1.80645C4.95161 1.80645 1.96774 4.79032 1.96774 8.41935C1.96774 12.0484 4.95161 15.0323 8.58064 15.0323C10.3548 15.0323 12.0484 14.3064 13.3387 12.9355L13.4194 12.8548L13.9839 13.4194L13.9032 13.5C12.4516 15.1129 10.5968 16 8.5 16ZM8.5 1.24194C4.46774 1.24194 1.24193 4.46774 1.24193 8.5C1.24193 12.5323 4.46774 15.7581 8.5 15.7581C10.4355 15.7581 12.2903 14.9516 13.6613 13.5806L13.3387 13.2581C12.0484 14.5484 10.3548 15.2742 8.5 15.2742C4.70968 15.2742 1.64516 12.2097 1.64516 8.41935C1.64516 4.62903 4.70968 1.56452 8.5 1.56452C10.3548 1.56452 12.0484 2.29032 13.3387 3.58065L13.6613 3.25807C12.2903 2.04839 10.4355 1.24194 8.5 1.24194Z"  stroke-width="0.3"/>
  </symbol>
  <symbol viewBox="0 0 10 10" id="cross">
    <rect xmlns="http://www.w3.org/2000/svg" y="9.09082" width="12.8565" height="1.28565" transform="rotate(-45 0 9.09082)" />
    <rect xmlns="http://www.w3.org/2000/svg" x="0.90918" width="12.8565" height="1.28565" transform="rotate(45 0.90918 0)" />
  </symbol>
	<use xlink:href="#vk" width="99" height="99" x="00" y="0"/>
	<use xlink:href="#odn" width="99" height="99" x="100" y="0"/>
	<use xlink:href="#inst" width="99" height="99" x="200" y="0"/>
	<use xlink:href="#user" width="100%" height="100%" x="300" y="0"/>
	<use xlink:href="#gramm" width="40" height="40" x="400" y="0"/>
	<use xlink:href="#cart" width="100%" height="100%" x="600" y="0"/>
	<use xlink:href="#compare" width="40" height="40" x="800" y="0"/>
	<use xlink:href="#msg" width="40" height="40" x="900" y="0"/>
	<use xlink:href="#arrow-r" width="40" height="40" x="1000" y="0"/>
	<use xlink:href="#arrow-l" width="40" height="40" x="1100" y="0"/>
	<use xlink:href="#coupon" width="40" height="40" x="1200" y="0"/>
	<use xlink:href="#collection" width="40" height="40" x="1300" y="0"/>
	<use xlink:href="#add-collection" width="40" height="40" x="1400" y="0"/>
	<use xlink:href="#sail" width="40" height="40" x="1500" y="0"/>
	<use xlink:href="#list" width="40" height="40" x="1600" y="0"/>
	<use xlink:href="#phone" width="17" height="17" x="1700" y="0"/>
	<use xlink:href="#mark" width="10" height="15" x="1800" y="0"/>
	<use xlink:href="#arrow-btn" width="8" height="8" x="1850" y="0"/>
  <use xlink:href="#search" width="15" height="15" x="1880" y="0"/>
  <use xlink:href="#heart" width="23" height="20" x="1900" y="0"/>
  <use xlink:href="#logout" width="22" height="17" x="1930" y="0"/>
  <use xlink:href="#cross" width="10" height="10" x="1960" y="0"/>
</svg>
