<svg xmlns="http://www.w3.org/2000/svg" xmlns:xlink="http://www.w3.org/1999/xlink">
	<symbol viewBox="0 0 99.04 99.04" id="vk">
		<path class="cls-1" d="M49.52,0a49.51,49.51,0,1,1-35,14.5A49.34,49.34,0,0,1,49.52,0ZM81.79,17.25A45.64,45.64,0,1,0,95.17,49.52,45.47,45.47,0,0,0,81.79,17.25Z"/>
		<path class="cls-2" d="M76.91,35.73c-.74-.55-3.4-.55-6-.55a37.37,37.37,0,0,0-6,.3C64.3,35.7,63,38.83,61.34,42c-1.93,3.62-4.25,7.13-5.74,7.08-1.94,0-1.48-6-1.34-10.37,0-2.88-.44-3.81-.85-4.05a16,16,0,0,0-3.81-1.4s-8.39-.63-9.57,3c1.62.22,4.36-.28,3.29,10.93-.08.55-1.29,5.16-5.18-1.07-1-1.56-4.72-10.91-6-11-4.31-.08-8.58-.28-10.06.55S23.91,43,29.42,51.58c4.47,7.07,9.21,12.55,17.44,13.92,1.56.17,5.56.33,6.85-.27.85-.41-.22-6.5,2.72-7.1,1.29-.25,6.3,6.36,8.19,7.1a18.39,18.39,0,0,0,6.26.55c2.79-.08,6,.27,6.27-1.65.69-4.19-8.47-9.68-8.71-12.25-.22-1.87,3.34-5.3,5.15-7.93,2.25-3.18,4.72-7,3.32-8.22Z"/>
	</symbol>

	<symbol viewBox="0 0 99.04 99.04" id="odn">
		<path class="cls-1" d="M49.52,0a49.51,49.51,0,1,1-35,14.5A49.34,49.34,0,0,1,49.52,0Zm32.3,17.25A45.71,45.71,0,1,0,95.17,49.52,45.59,45.59,0,0,0,81.82,17.25Z"/>
		<path class="cls-1" d="M38,79l-.6-.17A4.09,4.09,0,0,1,34.55,75a3.47,3.47,0,0,1,1-2.24Q41,67.33,46.44,61.86c.08-.07.14-.15.25-.27-.29-.05-.52-.09-.76-.11a28.69,28.69,0,0,1-7.12-1.72,18.16,18.16,0,0,1-4.06-2.32,19.85,19.85,0,0,1-2-1.72,2.73,2.73,0,0,1-.89-2.12,3.88,3.88,0,0,1,2.87-3.77,3.82,3.82,0,0,1,2.8.52c.69.41,1.33.9,2,1.34a15.3,15.3,0,0,0,4.36,1.86,22.54,22.54,0,0,0,5.59.81,18.76,18.76,0,0,0,2.7-.2,21,21,0,0,0,5.39-1.41,16.48,16.48,0,0,0,3.38-2,4.55,4.55,0,0,1,2.58-1,3.25,3.25,0,0,1,3.05,1.65,4.34,4.34,0,0,1,.68,1.94,3.07,3.07,0,0,1-.91,2.4,15.4,15.4,0,0,1-2.72,2.18,20.45,20.45,0,0,1-8.23,3.19c-1,.17-1.91.3-2.91.46a2.33,2.33,0,0,0,.19.23L63.2,72.39a4.19,4.19,0,0,1,1.2,1.73,3.42,3.42,0,0,1-.88,3.55A3.81,3.81,0,0,1,61.28,79a.51.51,0,0,0-.15.07h-.69c-.09,0-.18-.07-.27-.09a3.22,3.22,0,0,1-1.68-.83c-.25-.24-.5-.48-.74-.73l-8-8c-.14-.15-.24-.17-.4,0-2.69,2.7-5.39,5.39-8.07,8.1A4.34,4.34,0,0,1,38.77,79s-.05,0-.07,0Z"/>
		<path class="cls-1" d="M49.52,20a14.91,14.91,0,1,1-14.9,14.71A14.91,14.91,0,0,1,49.52,20ZM56.88,35a7.37,7.37,0,1,0-7.52,7.35A7.37,7.37,0,0,0,56.88,35Z"/>
	</symbol>

	<symbol viewBox="0 0 99.04 99.04" id="inst">
			<path class="cls-1" d="M49.52,0a49.51,49.51,0,1,1-35,14.5A49.31,49.31,0,0,1,49.52,0Zm32.3,17.25A45.71,45.71,0,1,0,95.17,49.52,45.59,45.59,0,0,0,81.82,17.25Z"/>
			<path class="cls-2" d="M36.85,49.52A12.68,12.68,0,1,1,49.52,62.21,12.71,12.71,0,0,1,36.85,49.52ZM62.62,24.7H36.44A11.78,11.78,0,0,0,24.7,36.44V62.62A11.79,11.79,0,0,0,36.44,74.36H62.62A11.76,11.76,0,0,0,74.36,62.62V36.44A11.75,11.75,0,0,0,62.62,24.7ZM36.44,27.64H62.62a8.82,8.82,0,0,1,8.81,8.8V62.62a8.81,8.81,0,0,1-8.81,8.8H36.44a8.81,8.81,0,0,1-8.8-8.8V36.44a8.81,8.81,0,0,1,8.8-8.8Zm28.79,3.7a2.58,2.58,0,1,0,2.58,2.58,2.57,2.57,0,0,0-2.58-2.58Zm.3,18.18a16,16,0,1,0-16,16,16,16,0,0,0,16-16Z"/>
	</symbol>

	<symbol viewBox="13 13 13.5 13.5" id="user">
		<path d="M20.2,20.6c-2.2,0-4-2-4-4.5s1.8-4.5,4-4.5s4,2,4,4.5S22.4,20.6,20.2,20.6z M20.2,12.6c-1.7,0-3,1.6-3,3.5s1.3,3.5,3,3.5     s3-1.6,3-3.5S21.9,12.6,20.2,12.6z"/>

		<path d="M26.2,27.4c-0.3,0-0.5-0.2-0.5-0.5v-3.4c0-1.9-1.5-3.4-3.4-3.4H22c-0.3,0-0.5-0.2-0.5-0.5s0.2-0.5,0.5-0.5h0.4     c2.4,0,4.4,2,4.4,4.4v3.4C26.7,27.2,26.5,27.4,26.2,27.4z"/>

		<path d="M14.2,27.4c-0.3,0-0.5-0.2-0.5-0.5v-3.4c0-2.4,2-4.4,4.4-4.4h0.4c0.3,0,0.5,0.2,0.5,0.5s-0.2,0.5-0.5,0.5h-0.4     c-1.9,0-3.4,1.5-3.4,3.4v3.4C14.7,27.2,14.5,27.4,14.2,27.4z"/>
	</symbol>

	<symbol viewBox="12 12 16 16" id="gramm">
		<path d="M20.9,28.5c-0.8,0-1.5-0.6-1.7-1.4l-0.8-4.9c0-0.3-0.3-0.5-0.6-0.6l-4.9-0.8c-0.8-0.1-1.3-0.7-1.4-1.5      c-0.1-0.8,0.3-1.5,1.1-1.7l12.6-4.9c0.7-0.3,1.6,0,2,0.6c0.3,0.5,0.4,1,0.2,1.6l-4.9,12.6C22.2,28.1,21.6,28.5,20.9,28.5z       M25.8,13.5c-0.1,0-0.2,0-0.3,0l-12.6,4.9c-0.4,0.1-0.5,0.5-0.4,0.7c0,0.2,0.2,0.5,0.6,0.6l4.9,0.8c0.7,0.1,1.3,0.7,1.4,1.4      l0.8,4.9c0.1,0.4,0.4,0.6,0.7,0.6c0.1,0,0.5,0,0.6-0.4l4.9-12.6c0.1-0.3,0-0.5-0.1-0.6C26.3,13.6,26,13.5,25.8,13.5z"/>
		<path d="M18.2,21.1l7.6-7.6c0.2-0.2,0.5-0.2,0.7,0s0.2,0.5,0,0.7l-7.6,7.6L18.2,21.1z"/>
	</symbol>

	<symbol viewBox="12 12 14 14" id="search">
		<path d="M18.5,24c-3,0-5.5-2.5-5.5-5.5s2.5-5.5,5.5-5.5s5.5,2.5,5.5,5.5S21.5,24,18.5,24z M18.5,14     C16,14,14,16,14,18.5s2,4.5,4.5,4.5s4.5-2,4.5-4.5S21,14,18.5,14z"/>
		<path d="M22.5,21.8l4.4,4.4c0.2,0.2,0.2,0.5,0,0.7C26.8,27,26.6,27,26.5,27s-0.3,0-0.4-0.1l-4.4-4.4L22.5,21.8z"/>
	</symbol>

	<symbol viewBox="12 14 14.5 14.5" id="cart">
		<path d="M24.3,25.4h-7.1c-1.1,0-2.1-0.7-2.4-1.8l-2-6.9c0,0,0,0,0,0L12.3,15l-1-0.3c-0.3-0.1-0.4-0.4-0.3-0.6      c0.1-0.3,0.4-0.4,0.6-0.3l1.2,0.4c0.2,0,0.3,0.2,0.3,0.3l0.5,1.6L26.6,17c0.4,0,0.9,0.3,1.1,0.6c0.3,0.4,0.3,0.8,0.2,1.3      l-1.2,4.7C26.4,24.7,25.4,25.4,24.3,25.4z M14,17.1l1.8,6.2c0.2,0.6,0.8,1.1,1.4,1.1h7.1c0.7,0,1.3-0.5,1.4-1.1l1.2-4.7      c0-0.1,0-0.3-0.1-0.4c-0.1-0.1-0.2-0.2-0.4-0.2L14,17.1z"/>
		<path d="M16.9,28.4c-1.1,0-2-0.9-2-2s0.9-2,2-2s2,0.9,2,2S18,28.4,16.9,28.4z M16.9,25.4c-0.6,0-1,0.4-1,1s0.4,1,1,1s1-0.4,1-1      S17.4,25.4,16.9,25.4z"/>
		<path d="M24.2,28.4c-1.1,0-2-0.9-2-2s0.9-2,2-2s2,0.9,2,2S25.3,28.4,24.2,28.4z M24.2,25.4c-0.6,0-1,0.4-1,1s0.4,1,1,1      s1-0.4,1-1S24.8,25.4,24.2,25.4z"/>

	</symbol>

	<symbol viewBox="12 12 16 16" id="star">
		<path d="M23.7,27.2c-0.2,0-0.5-0.1-0.7-0.2l-2.8-1.4c-0.1-0.1-0.3-0.1-0.4,0L17,27c-0.6,0.3-1.4,0.1-1.8-0.4    c-0.3-0.3-0.4-0.8-0.3-1.2l0.4-3.1c0-0.2,0-0.3-0.1-0.4L13,19.7c-0.4-0.4-0.5-1-0.4-1.5c0.2-0.5,0.6-0.9,1.2-1l3.1-0.5    c0.2,0,0.3-0.1,0.4-0.3l1.4-2.8c0.3-0.5,0.8-0.8,1.3-0.8s1.1,0.3,1.3,0.8l1.4,2.8c0.1,0.1,0.2,0.2,0.4,0.3l3.1,0.5    c0.6,0.1,1,0.5,1.2,1c0.2,0.5,0,1.1-0.4,1.5l-2.2,2.2c-0.1,0.1-0.2,0.3-0.1,0.4l0.5,3.1c0.1,0.4-0.1,0.9-0.3,1.2    C24.5,27,24.1,27.2,23.7,27.2z"/>
	</symbol>

	<symbol viewBox="11 10 18 18" id="eye">
		<path  d="M20,25.5c-3.8,0-7-2.7-8.6-4.3c-0.6-0.6-0.6-1.7,0-2.3c1.6-1.6,4.8-4.3,8.6-4.3s7,2.7,8.6,4.3c0.6,0.6,0.6,1.7,0,2.3    C27,22.8,23.8,25.5,20,25.5z M20,15.5c-3.6,0-6.7,2.8-7.9,4c-0.3,0.3-0.3,0.7,0,0.9c1.2,1.2,4.3,4,7.9,4s6.7-2.8,7.9-4    c0.3-0.3,0.3-0.7,0-0.9C26.7,18.3,23.6,15.5,20,15.5z"/>
	</symbol>

	<symbol viewBox="12 13 16 16" id="msg">
		<path fill="#231815" d="M27,26.4c-0.4,0-0.7-0.1-1-0.4l-1.6-1.4H15c-1.9,0-3.5-1.6-3.5-3.5v-4c0-1.9,1.6-3.5,3.5-3.5h10      c1.9,0,3.5,1.6,3.5,3.5v7.8C28.5,25.7,27.8,26.4,27,26.4z M15,14.6c-1.4,0-2.5,1.1-2.5,2.5v4c0,1.4,1.1,2.5,2.5,2.5h9.6      c0.1,0,0.2,0,0.3,0.1l1.8,1.6c0.3,0.3,0.8,0.1,0.8-0.4v-7.8c0-1.4-1.1-2.5-2.5-2.5H15z"/>
	</symbol>

	<symbol viewBox="12 13 15 15" id="arrow-l">
		<path d="M22,26.5c-0.1,0-0.3,0-0.4-0.1l-4.6-4.6c-0.5-0.5-0.7-1.1-0.7-1.8s0.3-1.3,0.7-1.8l4.6-4.6   c0.2-0.2,0.5-0.2,0.7,0s0.2,0.5,0,0.7l-4.6,4.6c-0.6,0.6-0.6,1.5,0,2.1l4.6,4.6c0.2,0.2,0.2,0.5,0,0.7   C22.3,26.5,22.1,26.5,22,26.5z"></path>
	</symbol>

	<symbol viewBox="12 13 15 15" id="arrow-r">
		<path d="M18,26.5c-0.1,0-0.3,0-0.4-0.1c-0.2-0.2-0.2-0.5,0-0.7l4.6-4.6c0.6-0.6,0.6-1.5,0-2.1l-4.6-4.6   c-0.2-0.2-0.2-0.5,0-0.7s0.5-0.2,0.7,0l4.6,4.6c0.5,0.5,0.7,1.1,0.7,1.8s-0.3,1.3-0.7,1.8l-4.6,4.6C18.3,26.5,18.1,26.5,18,26.5z   "></path>
	</symbol>

	<symbol viewBox="12 13 15 15" id="compare">
		<path  d="M28,28.5H12c-0.3,0-0.5-0.2-0.5-0.5V12c0-0.3,0.2-0.5,0.5-0.5s0.5,0.2,0.5,0.5v15.5H28      c0.3,0,0.5,0.2,0.5,0.5S28.3,28.5,28,28.5z"/>
		<path  d="M12,22.5c-0.2,0-0.3-0.1-0.4-0.2c-0.2-0.2-0.1-0.5,0.1-0.7l3.9-2.9c0.2-0.1,0.4-0.1,0.6,0L20,21l6.6-6.2      c0.2-0.2,0.5-0.2,0.7,0s0.2,0.5,0,0.7L20.4,22c-0.2,0.2-0.4,0.2-0.6,0.1L16,19.8l-3.6,2.7C12.2,22.5,12.1,22.5,12,22.5z"/>
		<path  d="M16.4,28v-4.4h-1V28h-1v-4.9c0-0.3,0.2-0.5,0.5-0.5h2c0.3,0,0.5,0.2,0.5,0.5V28H16.4z"/>
		<path  d="M20.9,28v-2.7h-1V28h-1v-3.2c0-0.3,0.2-0.5,0.5-0.5h2c0.3,0,0.5,0.2,0.5,0.5V28H20.9z"/>
		<path  d="M25.4,28v-5.9h-1V28h-1v-6.4c0-0.3,0.2-0.5,0.5-0.5h2c0.3,0,0.5,0.2,0.5,0.5V28H25.4z"/>
	</symbol>

	<symbol viewBox="11.5 11.5 16.5 16.5" id="coupon">
		<path d="M19.6,28.5L19.6,28.5c-0.1,0-0.3-0.1-0.4-0.1c-0.8-0.8-2.2-0.8-2.9,0c-0.2,0.2-0.5,0.2-0.7,0l-4-4     c-0.2-0.2-0.2-0.5,0-0.7c0.8-0.8,0.8-2.1,0-2.9c-0.2-0.2-0.2-0.5,0-0.7l8.4-8.4c0.1-0.1,0.2-0.1,0.4-0.1l0,0     c0.1,0,0.3,0.1,0.4,0.1c0.8,0.8,2.1,0.8,2.9,0c0.2-0.2,0.5-0.2,0.7,0l4,4c0.2,0.2,0.2,0.5,0,0.7c-0.8,0.8-0.8,2.1,0,2.9     c0.2,0.2,0.2,0.5,0,0.7L20,28.4C19.9,28.4,19.7,28.5,19.6,28.5z M12.7,24l3.3,3.3c1-0.7,2.5-0.7,3.6,0l7.7-7.7     c-0.8-1.1-0.8-2.5,0-3.6L24,12.7c-1,0.7-2.5,0.7-3.6,0l-7.7,7.7C13.4,21.5,13.4,22.9,12.7,24z"/>
		<path d="M21,23.3c-0.2,0-0.4-0.1-0.5-0.4l-1.7-5.9c-0.1-0.3,0.1-0.5,0.3-0.6c0.3-0.1,0.5,0.1,0.6,0.3l1.7,5.9      c0.1,0.3-0.1,0.5-0.3,0.6C21.1,23.3,21.1,23.3,21,23.3z"/>
		<path d="M23,20.9c-0.6,0-1-0.4-1-1s0.4-1,1-1c0.6,0,1,0.4,1,1S23.6,20.9,23,20.9z"/>
		<path d="M17.4,20.8c-0.6,0-1-0.4-1-1s0.4-1,1-1c0.6,0,1,0.4,1,1S17.9,20.8,17.4,20.8z"/>
	</symbol>

	<symbol viewBox="11.5 11.5 16.5 16.5" id="collection">
		<path d="M26.5,27h-13c-0.8,0-1.5-0.7-1.5-1.5v-11c0-0.8,0.7-1.5,1.5-1.5h4c0.8,0,1.5,0.7,1.5,1.5v1c0,0.3,0.2,0.5,0.5,0.5h7     c0.8,0,1.5,0.7,1.5,1.5v8C28,26.3,27.3,27,26.5,27z M13.5,14c-0.3,0-0.5,0.2-0.5,0.5v11c0,0.3,0.2,0.5,0.5,0.5h13     c0.3,0,0.5-0.2,0.5-0.5v-8c0-0.3-0.2-0.5-0.5-0.5h-7c-0.8,0-1.5-0.7-1.5-1.5v-1c0-0.3-0.2-0.5-0.5-0.5H13.5z"/>
		<path d="M21.2,24.4c-0.1,0-0.3,0-0.4-0.1L20,23.9l-0.9,0.4c-0.3,0.2-0.8,0.1-1-0.2c-0.2-0.2-0.2-0.4-0.2-0.7l0.1-1l-0.7-0.7     c-0.2-0.2-0.3-0.5-0.2-0.8c0.1-0.3,0.3-0.5,0.7-0.6l1-0.2l0.5-0.9c0.3-0.6,1.2-0.6,1.5,0l0.5,0.9l1,0.2c0.3,0.1,0.6,0.3,0.7,0.6     c0.1,0.3,0,0.6-0.2,0.8l-0.7,0.7l0.1,1c0,0.2,0,0.5-0.2,0.7C21.7,24.3,21.5,24.4,21.2,24.4z M18.3,21.3l0.5,0.5     c0.2,0.2,0.3,0.5,0.2,0.7L19,23.3l0.7-0.3c0.2-0.1,0.5-0.1,0.7,0l0.7,0.3l-0.1-0.7c0-0.3,0-0.5,0.2-0.7l0.5-0.5l-0.7-0.1     c-0.3,0-0.5-0.2-0.6-0.4L20,20.1l-0.3,0.7c-0.1,0.2-0.3,0.4-0.6,0.4L18.3,21.3z"/>

	</symbol>

	<symbol viewBox="11.5 11.5 16.5 16.5" id="add-collection">
		<path d="M26.5,27h-13c-0.8,0-1.5-0.7-1.5-1.5v-11c0-0.8,0.7-1.5,1.5-1.5h4c0.8,0,1.5,0.7,1.5,1.5v1c0,0.3,0.2,0.5,0.5,0.5h7    c0.8,0,1.5,0.7,1.5,1.5v8C28,26.3,27.3,27,26.5,27z M13.5,14c-0.3,0-0.5,0.2-0.5,0.5v11c0,0.3,0.2,0.5,0.5,0.5h13    c0.3,0,0.5-0.2,0.5-0.5v-8c0-0.3-0.2-0.5-0.5-0.5h-7c-0.8,0-1.5-0.7-1.5-1.5v-1c0-0.3-0.2-0.5-0.5-0.5H13.5z"/>
		<path d="M22,22.2h-4c-0.3,0-0.5-0.2-0.5-0.5s0.2-0.5,0.5-0.5h4c0.3,0,0.5,0.2,0.5,0.5S22.3,22.2,22,22.2z"/>
		<path d="M20,24.2c-0.3,0-0.5-0.2-0.5-0.5v-4c0-0.3,0.2-0.5,0.5-0.5s0.5,0.2,0.5,0.5v4C20.5,24,20.3,24.2,20,24.2z"/>

	</symbol>
	<symbol viewBox="11.5 11.5 16.5 16.5" id="sail">
		<path d="M17.7,29.5c-0.3,0-0.6-0.1-0.8-0.3l-6-6c-0.2-0.2-0.3-0.5-0.3-0.8s0.1-0.6,0.3-0.8l8.7-8.7c0.2-0.2,0.5-0.3,0.8-0.3h6      c0.6,0,1.1,0.5,1.1,1.1v6c0,0.3-0.1,0.6-0.3,0.8l-8.7,8.7C18.2,29.4,17.9,29.5,17.7,29.5z M20.3,13.5l-8.8,8.8c0,0,0,0.1,0,0.2      l6.1,6.1c0,0,0.1,0,0.1,0l8.7-8.7l0-6.1c0-0.1,0-0.1-0.1-0.1H20.3z"/>
		<path d="M23.5,17.5c-0.3,0-0.5-0.1-0.7-0.3c-0.4-0.4-0.4-1,0-1.4c0.4-0.4,1-0.4,1.4,0c0.4,0.4,0.4,1,0,1.4      C24,17.4,23.8,17.5,23.5,17.5z"/>
	</symbol>
	<symbol viewBox="11.5 11.5 16.5 16.5" id="list">
		<path d="M25.6,15.5h-6.8c-0.3,0-0.5-0.2-0.5-0.5s0.2-0.5,0.5-0.5h6.8c0.3,0,0.5,0.2,0.5,0.5       S25.9,15.5,25.6,15.5z"/>
		<path d="M25.6,20.5h-6.8c-0.3,0-0.5-0.2-0.5-0.5s0.2-0.5,0.5-0.5h6.8c0.3,0,0.5,0.2,0.5,0.5       S25.9,20.5,25.6,20.5z"/>
		<path d="M25.6,25.5h-6.8c-0.3,0-0.5-0.2-0.5-0.5s0.2-0.5,0.5-0.5h6.8c0.3,0,0.5,0.2,0.5,0.5       S25.9,25.5,25.6,25.5z"/>
		<path d="M15,16c-0.2,0-0.4-0.1-0.6-0.2L14,15.4c-0.2-0.2-0.2-0.5,0-0.7s0.5-0.2,0.7,0l0.2,0.2l0.7-0.8      c0.2-0.2,0.5-0.2,0.7,0c0.2,0.2,0.2,0.5,0,0.7l-0.9,0.9C15.4,15.9,15.2,16,15,16C15,16,15,16,15,16z"/>
		<path d="M15,21c-0.2,0-0.4-0.1-0.6-0.2L14,20.4c-0.2-0.2-0.2-0.5,0-0.7s0.5-0.2,0.7,0l0.2,0.2l0.7-0.8      c0.2-0.2,0.5-0.2,0.7,0c0.2,0.2,0.2,0.5,0,0.7l-0.9,0.9C15.4,20.9,15.2,21,15,21C15,21,15,21,15,21z"/>
		<path d="M15,26c-0.2,0-0.4-0.1-0.6-0.2L14,25.4c-0.2-0.2-0.2-0.5,0-0.7s0.5-0.2,0.7,0l0.2,0.2l0.7-0.8      c0.2-0.2,0.5-0.2,0.7,0c0.2,0.2,0.2,0.5,0,0.7l-0.9,0.9C15.4,25.9,15.2,26,15,26C15,26,15,26,15,26z"/>
	</symbol>

	<use xlink:href="#vk" width="99" height="99" x="00" y="0"/>
	<use xlink:href="#odn" width="99" height="99" x="100" y="0"/>
	<use xlink:href="#inst" width="99" height="99" x="200" y="0"/>
	<use xlink:href="#user" width="40" height="40" x="300" y="0"/>
	<use xlink:href="#gramm" width="40" height="40" x="400" y="0"/>
	<use xlink:href="#search" width="40" height="40" x="500" y="0"/>
	<use xlink:href="#cart" width="40" height="40" x="600" y="0"/>
	<use xlink:href="#eye" width="40" height="40" x="700" y="0"/>
	<use xlink:href="#compare" width="40" height="40" x="800" y="0"/>
	<use xlink:href="#msg" width="40" height="40" x="900" y="0"/>
	<use xlink:href="#arrow-r" width="40" height="40" x="1000" y="0"/>
	<use xlink:href="#arrow-l" width="40" height="40" x="1100" y="0"/>
	<use xlink:href="#coupon" width="40" height="40" x="1200" y="0"/>
	<use xlink:href="#collection" width="40" height="40" x="1300" y="0"/>
	<use xlink:href="#add-collection" width="40" height="40" x="1400" y="0"/>
	<use xlink:href="#sail" width="40" height="40" x="1500" y="0"/>
	<use xlink:href="#list" width="40" height="40" x="1600" y="0"/>
</svg>
